<svg xmlns="http://www.w3.org/2000/svg" xmlns:xlink="http://www.w3.org/1999/xlink" viewBox="0 0 200 200" enable-background="new 0 0 200 200"><defs><circle id="a" cx="99.9" cy="100.2" r="81.3"/></defs><clipPath id="b"><use xlink:href="#a" overflow="visible"/></clipPath><g clip-path="url(#b)"><path fill-rule="evenodd" clip-rule="evenodd" fill="#394D09" d="M192.3 270.4c2.2 7.8 10.1 9.3 12.8 9.6 4.9-5.1 4.3-14.3-2.9-22.4-7.4-8.3-15.7-12.3-21.3-7.6 2.4-.1 6.1.6 9.6 5.4 5.6 7.9.5 10.4 1.8 15zm19.4-41.7c.2-.3.4-.5.6-.8-8.8 4-18.3 0-23-5.9-5.6-7.1-.7-14.5-6.9-22.2-4.3-5.4-10.5-6.4-13.8-6.5-5.8 9.4-1.1 23.8 9.9 34.3 11.1 10.6 25.5 10.6 33.2 1.1zm-102.5-64.8c-.1.2-.2.4-.2.5 4.6-3.3 10.5-2.1 13.9.8 4.1 3.4 2.1 8.3 6.6 12 3.1 2.6 6.8 2.5 8.7 2.1 2.2-6.1-2.1-13.8-9.7-18.5-7.7-4.9-16-3.3-19.3 3.1zM216.6 47.5c11.2 10.6 25.5 10.6 33.2 1.1.2-.3.4-.5.6-.8-8.8 4-18.3 0-23-5.9-5.6-7.1-.7-14.5-6.9-22.2-4.3-5.4-10.5-6.4-13.8-6.5-5.7 9.5-1 23.9 9.9 34.3zm-27.5 33.3c.2.1.4.2.5.2-3.3-4.6-2.1-10.6.8-13.9 3.5-4.1 8.3-2.1 12-6.6 2.6-3.1 2.5-6.8 2.1-8.7-6.1-2.3-13.9 2.1-18.6 9.7-4.8 7.7-3.1 16 3.2 19.3zm-19.6 111.1c3.3-.9 8.9-1 15.2 4.8 10.3 9.4 3.9 14.5 7.1 20.6 5.5 10.4 17 10.1 21 9.7 5.4-8.7 1.9-21.5-10.8-30.8-13-9.5-25.9-12.6-32.5-4.3zm27-14.9h.7c-5.9-3-7.8-9.9-6.7-14.9 1.4-6.1 7.6-6.6 9-13.3 1-4.7-1.1-8.4-2.4-10.3-7.6.9-13.4 9.7-14.3 20.1-.9 10.5 5.3 18.3 13.7 18.4zm-41.2 71.1c-5.4 4.4-3.9 11-3.2 13.2 5.6 2.1 12.6-1.4 16.5-9.8 4-8.6 4.3-16.4-1.2-19.3.9 1.8 1.6 5-1 9.3-4.3 7.2-7.9 4-11.1 6.6zm-2.8-106.3c-.2.1-.5.3-.7.4 7.9.2 13.5 6.5 14.8 12.5 1.6 7.3-4.7 11-2.8 18.9 1.3 5.5 5.5 8.4 7.9 9.7 7.6-4.9 9.3-17.2 4.9-28.8-4.5-11.8-15.1-17-24.1-12.7zm14.3-32.8c-12.3 6.4-14.9-1.4-21.8-.4-11.6 1.6-15.4 12.5-16.4 16.3 6.3 8.1 19.5 9.2 32.6.5 13.5-9 20.8-20 15.3-29-.2 3.4-2.1 8.7-9.7 12.6zM95 222.7c.9-3.3 3.6-8.2 11.7-10.8 13.2-4.3 14.4 3.8 21.4 4.1 11.7.4 17.3-9.8 18.9-13.4-4.9-9-17.7-12.3-32-5.9-14.9 6.6-24 16.3-20 26zm33.1-98.5c-.8-9.6 6.3-17.2 13.4-19.6 8.6-2.8 13.9 4.3 23.2 1.1 6.5-2.2 9.6-7.6 10.8-10.7-6.8-8.7-22-9.2-35.5-2.5-13.8 6.8-18.8 20.3-12.5 30.8l.6.9zm9.6 56c-1.8.9-5 1.5-9.3-1-7-4.2-3.9-7.9-6.5-11-4.4-5.3-11-3.9-13.2-3.2-2.1 5.6 1.4 12.5 9.8 16.4 8.6 4 16.4 4.3 19.2-1.2zm32.7 3.9c-2.8-.5-6.9-2.5-9.5-9-4.3-10.6 2.3-12.1 2.1-17.8-.3-9.6-9-13.6-12-14.7-7.1 4.5-9.1 15.2-3 26.6 6.2 11.8 14.7 18.7 22.4 14.9zm-40.1 48.6c14.7-4.4 21.9-16.9 17.5-28.3-.1-.3-.3-.6-.4-1-.9 9.6-9.1 15.9-16.5 17-9 1.4-13-6.6-22.7-5-6.8 1.1-10.7 6-12.5 8.8 5.3 9.7 20.1 12.8 34.6 8.5zM260.8 160c5.9-2 9.6 2.9 16.1.6 4.5-1.6 6.6-5.4 7.4-7.5-4.8-6-15.3-6.2-24.6-1.5-9.5 4.8-12.9 14.2-8.4 21.4.1.2.3.4.4.6-.6-6.7 4.2-12 9.1-13.6zM229 244.8c8.4-3.5 14.2 3.3 23.3-.6 6.3-2.7 9-8.3 10-11.5-7.4-8.1-22.6-7.6-35.6.1-13.2 7.8-17.2 21.7-10.2 31.6.2.3.4.6.6.8-1.5-9.5 4.9-17.6 11.9-20.4zM214.1 185c-.1.3-.3.6-.4 1 7.6-6 17.8-4.4 23.7.2 7.2 5.5 4.2 13.9 12.1 19.9 5.5 4.2 11.7 3.6 15 3 3.4-10.5-4.7-23.4-17.8-30.9-13.5-7.7-27.5-4.3-32.6 6.8zm33.8 24.5c-12.2-6.6-7.2-13.1-11.8-18.3-7.8-8.8-19-5.8-22.7-4.4-3.2 9.7 3.3 21.3 17.9 27.3 14.9 6.1 28.3 6.1 32.6-3.6-3.1 1.7-8.5 3.1-16-1zm-136.1-67.9c-8.5 4.5-10.3-.8-15.1-.2-8 1.2-10.6 8.8-11.2 11.4 4.4 5.5 13.6 6.2 22.5.1 9.3-6.3 14.3-14 10.4-20.2-.1 2.5-1.4 6.1-6.6 8.9zm142.7-57.2c.2.3.4.6.6.8-1.5-9.6 5-17.6 11.9-20.5 8.4-3.5 14.2 3.3 23.3-.6 6.3-2.7 9-8.3 10-11.5-7.4-8.1-22.6-7.6-35.6.1-13.2 7.9-17.2 21.7-10.2 31.7zm-60.4 76.9c-3.3 7.4 1.8 13.6 3.7 15.6 7-.8 12.4-8.2 12-19.1-.4-11.2-4.3-19.5-11.6-19.5 1.9 1.4 4.3 4.4 3.9 10.3-.5 9.6-6 8.3-8 12.7zm37.9-6.4c-5.3 2.4-5.5 8.1-5.5 10 4.1 2.9 10.5 1.6 15.4-4.4 5.1-6.1 7.1-12.4 3.2-15.8.3 1.7.2 4.4-2.9 7.3-4.8 4.8-7.1 1.5-10.2 2.9zm-9.1-138.2c10.3 9.4 3.9 14.5 7.1 20.6 5.5 10.4 17 10.1 21 9.7 5.4-8.7 1.9-21.5-10.8-30.8-13-9.6-26-12.7-32.5-4.4 3.3-.8 8.9-.9 15.2 4.9zm4.5 131.3c-5.6 5.2-6.1 12.3-1.6 16.3.1.1.3.2.4.3-1.7-4.4.6-9 3.6-11.1 3.7-2.6 7.2.1 11.1-2.7 2.8-2 3.5-5 3.6-6.6-4.4-3.2-11.6-1.3-17.1 3.8zm-5.5-17.4c-2.7.7-7.3.7-12.4-4.1-8.4-7.8-3-11.9-5.6-17-4.4-8.6-13.9-8.5-17.1-8.2-4.5 7.1-1.8 17.6 8.5 25.4 10.6 8 21.1 10.7 26.6 3.9zm28.3-14.9c13.2-4.3 14.4 3.8 21.4 4.1 11.7.4 17.3-9.8 18.9-13.4-4.9-9-17.7-12.3-32-5.9-14.8 6.6-23.9 16.3-20 26 .8-3.3 3.5-8.2 11.7-10.8zm-19.7-25.3c2.2 7.8 10.1 9.3 12.8 9.6 4.9-5.1 4.3-14.3-2.9-22.4-7.4-8.3-15.7-12.3-21.3-7.6 2.4-.1 6.1.6 9.6 5.4 5.5 7.8.5 10.4 1.8 15zm-37.1-22.3c-5.4 4.4-3.9 11-3.2 13.2 5.6 2.1 12.6-1.4 16.5-9.8 4-8.6 4.3-16.4-1.2-19.3.9 1.8 1.6 5-1 9.3-4.2 7.1-7.9 4-11.1 6.6zm-5.7 31.9c-.2.2-.3.4-.5.7 7.2-3.2 15 .2 18.7 5.1 4.5 5.9.4 11.9 5.5 18.3 3.5 4.4 8.5 5.3 11.3 5.4 4.8-7.7 1.1-19.6-7.8-28.2-9-8.8-20.9-9-27.2-1.3zm32.3-4.6c6 8.8 15.8 10.9 22.3 5.5.2-.1.3-.3.5-.5-6.5 1.4-12.4-2.6-14.7-7.3-2.8-5.6 1.6-9.9-1.5-16-2.2-4.2-6.2-5.8-8.4-6.3-5.3 5.6-4.2 16 1.8 24.6zm-69 165.5c.2.1.4.2.5.2-3.3-4.6-2.1-10.6.8-13.9 3.5-4.1 8.3-2.1 12-6.6 2.6-3.1 2.5-6.8 2.1-8.7-6.1-2.3-13.9 2.1-18.6 9.7-4.8 7.6-3.2 15.9 3.2 19.3zm20.3 45.7c-8.4-7.8-3-11.9-5.6-17-4.4-8.6-13.9-8.5-17.1-8.2-4.5 7.1-1.8 17.6 8.5 25.4 10.6 8 21.2 10.7 26.6 3.9-2.7.7-7.3.7-12.4-4.1zM129 275.9c-13.9.4-12.8-7.7-19.4-9.9-11.1-3.7-19.3 4.5-21.9 7.5 2.1 10 13.5 16.8 29.1 14.7 16-2.2 27.5-8.9 26.4-19.4-1.7 2.9-5.6 6.8-14.2 7.1zm20.5 4.2c-.2.2-.3.4-.5.7 7.2-3.2 15 .2 18.7 5.1 4.5 5.9.4 11.9 5.5 18.3 3.5 4.4 8.5 5.3 11.3 5.4 4.8-7.7 1.1-19.6-7.8-28.2-9-8.9-20.8-9.1-27.2-1.3zm-74.9-19.5c-.9 9.6-9.1 15.9-16.5 17-9 1.4-13-6.6-22.7-5-6.8 1.1-10.7 6-12.5 8.8 5.3 9.7 20.1 12.8 34.6 8.4 14.7-4.4 21.9-16.9 17.5-28.3-.1-.2-.2-.6-.4-.9zm4.3-44.7h-.5c3.9 2.7 4.5 7.8 3.2 11.2-1.6 4.2-6 3.9-7.7 8.5-1.2 3.2-.1 6 .7 7.5 5.4.1 10.4-5.5 12.1-12.7 1.7-7.5-1.9-13.6-7.8-14.5zm29.3 44.9c9 1.2 10.6 10 20.4 11.2 6.8.8 12-2.7 14.4-4.9-2.3-10.8-15.7-17.9-30.9-17.8-15.4.1-25.8 10.1-24.7 22.2 0 .3.1.7.1 1 3.6-9 13.3-12.7 20.7-11.7zm146.3-13.5c-11.8 7.3-14.9-.3-21.8 1.2-11.5 2.4-14.4 13.6-15.1 17.5 6.9 7.6 20.1 7.7 32.5-2 12.8-9.9 19.3-21.5 13.1-30.1.1 3.5-1.4 8.9-8.7 13.4zm36.4-140c-.9 9.6-9.1 15.9-16.5 17-9 1.4-13-6.6-22.7-5-6.8 1.1-10.7 6-12.5 8.8 5.3 9.7 20.1 12.8 34.6 8.4 14.7-4.4 21.9-16.9 17.5-28.3-.2-.3-.3-.6-.4-.9zm-12.5 55.5c-8.5 4.5-10.3-.8-15.1-.2-8 1.2-10.6 8.8-11.2 11.4 4.4 5.5 13.6 6.2 22.5.1 9.3-6.3 14.3-14 10.4-20.2-.2 2.5-1.4 6.2-6.6 8.9zm23.1-108.9c0 3.5-1.5 8.8-8.8 13.3-11.8 7.3-14.9-.3-21.8 1.2-11.5 2.4-14.4 13.6-15.1 17.5 6.9 7.6 20.1 7.7 32.5-2 12.8-9.8 19.3-21.4 13.2-30zM212 295.7c13.2-4.3 14.4 3.8 21.4 4.1 11.7.4 17.3-9.8 18.9-13.4-4.9-9-17.7-12.3-32-5.9-14.8 6.6-23.9 16.3-20 26 .9-3.3 3.6-8.1 11.7-10.8zm-7.4-15.2c-6.5 1.4-12.4-2.6-14.7-7.3-2.8-5.6 1.6-9.9-1.5-16-2.2-4.2-6.2-5.8-8.4-6.3-5.3 5.5-4.1 16 1.8 24.6 6 8.8 15.8 10.9 22.3 5.5.2-.2.3-.4.5-.5zm48.1 6.8c-.9 9.6-9.1 15.9-16.5 17-9 1.4-13-6.6-22.7-5-6.8 1.1-10.7 6-12.5 8.8 5.3 9.7 20.1 12.8 34.6 8.4 14.7-4.4 21.9-16.9 17.5-28.3-.1-.3-.2-.6-.4-.9zM33.9 269.1c13.2-4.3 14.4 3.8 21.4 4.1 11.7.4 17.3-9.8 18.9-13.4-4.9-9-17.7-12.3-32-5.9-14.8 6.6-23.9 16.3-20 26 .9-3.4 3.6-8.2 11.7-10.8zm-75.8-17.9c-4.9 4.8-7.2 1.4-10.3 2.9-5.3 2.4-5.5 8.1-5.5 10 4.1 2.9 10.5 1.6 15.4-4.4 5.1-6.1 7.1-12.4 3.2-15.8.3 1.6.2 4.3-2.8 7.3zm86.1-21.9c-2.8-.5-6.9-2.5-9.5-9-4.3-10.6 2.3-12.1 2.1-17.8-.3-9.6-9-13.6-12-14.7-7.1 4.5-9.1 15.2-3 26.6 6.2 11.8 14.6 18.7 22.4 14.9zm-102.3 34.4c-1.7-4.4.6-9 3.6-11.1 3.7-2.6 7.2.1 11.1-2.7 2.8-2 3.5-5 3.6-6.6-4.4-3.1-11.7-1.3-17.1 3.8-5.6 5.2-6.1 12.3-1.6 16.3.1.1.2.2.4.3zm88.7-13.9c-1.5.7-4.2 1.3-7.8-.9-5.9-3.5-3.3-6.6-5.4-9.3-3.7-4.5-9.2-3.3-11.1-2.7-1.8 4.7 1.2 10.5 8.2 13.8 7.2 3.5 13.7 3.7 16.1-.9zm-12.5-12.6c3.4 2.9 1.8 6.9 5.5 10.1 2.6 2.2 5.7 2.1 7.3 1.8 1.9-5.1-1.8-11.6-8.1-15.6-6.4-4-13.4-2.7-16.2 2.6-.1.1-.1.3-.2.4 3.9-2.7 8.9-1.7 11.7.7zm52.7-72.4c7.2 5.5 4.2 13.9 12.1 19.9 5.5 4.2 11.7 3.6 15 3 3.4-10.5-4.7-23.4-17.8-30.9-13.4-7.6-27.4-4.2-32.5 6.9-.1.3-.3.6-.4 1 7.4-6.1 17.6-4.5 23.6.1zm-6.2 28c14.9 6.1 28.3 6.1 32.6-3.6-3 1.7-8.4 3.1-15.9-1-12.2-6.6-7.2-13.1-11.8-18.3-7.8-8.8-19-5.8-22.7-4.4-3.2 9.8 3.3 21.4 17.8 27.3zM79 227.1c3.1-4.9.1-9.8-1.1-11.4-5-.1-9.6 4.5-10.4 12.3-.8 7.9 1.1 14.2 6.2 14.9-1.2-1.2-2.6-3.5-1.7-7.7 1.4-6.6 5.2-5.2 7-8.1zM40.3 200c1.6 7.3-4.7 11-2.8 18.9 1.3 5.5 5.5 8.4 7.9 9.7 7.6-4.9 9.3-17.2 4.9-28.8-4.5-11.8-15.1-17-24.1-12.7-.2.1-.5.3-.7.4 7.9.2 13.5 6.5 14.8 12.5zm-45.7 49.7c1.3 2 2.5 5.6.1 11-4 8.8-8.7 5.6-12.1 9.1-5.7 5.8-3.1 13.4-2 15.9 6.9 1.7 14.5-3.3 18-13.7 3.5-10.6 2.8-19.7-4-22.3zM-8 230.9c-7-4.2-3.9-7.9-6.5-11-4.4-5.3-11-3.9-13.2-3.2-2.1 5.6 1.4 12.5 9.8 16.4 8.6 4 16.4 4.3 19.2-1.2-1.8 1-5 1.6-9.3-1zm-79.8 55.4c13.2-4.3 14.4 3.8 21.4 4.1 11.7.4 17.3-9.8 18.9-13.4-4.9-9-17.7-12.3-32-5.9-14.8 6.6-23.9 16.3-20 26 .9-3.3 3.6-8.1 11.7-10.8zM-8 212.5c-7.7-4.8-16-3.2-19.3 3.1-.1.2-.2.4-.2.5 4.6-3.3 10.5-2.1 13.9.8 4.1 3.4 2.1 8.3 6.6 12 3.1 2.6 6.8 2.5 8.7 2.1 2.2-6-2.1-13.8-9.7-18.5zm-39.1 65.4c-.9 9.6-9.1 15.9-16.5 17-9 1.4-13-6.6-22.7-5-6.8 1.1-10.7 6-12.5 8.8 5.3 9.7 20.1 12.8 34.6 8.4 14.7-4.4 21.9-16.9 17.5-28.3-.1-.3-.2-.6-.4-.9zM85.1 152.3c-.6-6.6 4.3-11.9 9.2-13.6 5.9-2 9.6 2.9 16.1.6 4.5-1.6 6.6-5.4 7.4-7.5-4.8-6-15.3-6.2-24.6-1.5-9.5 4.8-12.9 14.2-8.4 21.4 0 .2.2.4.3.6zM-21 269.1c3.5-5.2 9.4-3.6 13.1-9.3 2.6-4 2-8.2 1.3-10.5-7.4-1.8-15.9 4.3-20.4 13.8-4.6 9.6-1.6 19.1 6.3 22.1.2.1.4.1.7.2-4.5-4.8-3.9-11.9-1-16.3zM-5.4 123.8c-6-8.8-15.8-10.9-22.3-5.5-.2.1-.3.3-.5.5 6.5-1.4 12.4 2.6 14.7 7.3 2.8 5.6-1.6 9.9 1.5 16 2.2 4.2 6.2 5.8 8.4 6.3 5.2-5.5 4.1-16-1.8-24.6zm32.3-4.6c.2-.2.3-.4.5-.7-7.2 3.2-15-.2-18.7-5.1-4.5-5.9-.4-11.9-5.5-18.3-3.5-4.4-8.5-5.3-11.3-5.4-4.8 7.7-1.1 19.6 7.8 28.2 9 8.8 20.8 9 27.2 1.3zm-7.6-26.7c-10.6-8-21.2-10.7-26.6-3.9 2.7-.7 7.3-.7 12.4 4.1 8.4 7.8 3 11.9 5.6 17 4.4 8.6 13.9 8.5 17.1 8.2 4.6-7.1 1.8-17.7-8.5-25.4zm1.1-34.6c3.3-7.4-1.8-13.6-3.7-15.6-7 .8-12.4 8.2-12 19.1.4 11.2 4.3 19.5 11.5 19.5-1.9-1.4-4.3-4.4-3.9-10.3.6-9.6 6.2-8.3 8.1-12.7zm-33.2 13.3c5.6-5.2 6.1-12.3 1.6-16.3-.1-.1-.3-.2-.4-.3 1.7 4.4-.6 9-3.6 11.1-3.7 2.6-7.2-.1-11.1 2.7-2.8 2-3.5 5-3.6 6.6 4.3 3.2 11.6 1.3 17.1-3.8zm-22.8 32.3c-13.2 4.3-14.4-3.8-21.4-4.1-11.7-.4-17.3 9.8-18.9 13.4 4.9 9 17.7 12.3 32 5.9 14.8-6.6 23.9-16.3 20-26-.9 3.3-3.6 8.2-11.7 10.8zm31.1 45.7c-2.4.1-6.1-.6-9.6-5.4-5.6-7.8-.5-10.3-1.9-15-2.2-7.8-10.1-9.3-12.8-9.6-4.9 5.1-4.3 14.3 2.9 22.4 7.5 8.3 15.8 12.2 21.4 7.6zM67.2 15.8c.9-9.6 9.1-15.9 16.5-17 9-1.4 13 6.6 22.7 5 6.8-1.1 10.7-6 12.5-8.8-5.3-9.7-20.1-12.8-34.6-8.4-14.8 4.3-22 16.8-17.5 28.2.1.3.2.6.4 1zM-33.3 9.7c12.2 6.6 7.2 13.1 11.8 18.3 7.8 8.8 19 5.8 22.7 4.4 3.2-9.7-3.3-21.3-17.9-27.3-14.9-6.1-28.2-6-32.5 3.6 3-1.7 8.4-3.1 15.9 1zm92.6-38.6c5.4-4.4 3.9-11 3.2-13.2-5.6-2.1-12.6 1.4-16.5 9.8-4 8.6-4.3 16.4 1.2 19.3-.9-1.8-1.6-5 1-9.3 4.2-7.1 7.9-4 11.1-6.6zm26.3-27.7c13.9-.4 12.8 7.7 19.4 9.9 11.1 3.7 19.3-4.5 21.9-7.5-2.1-10-13.5-16.8-29.1-14.7-16 2.2-27.5 8.9-26.4 19.4 1.6-3 5.6-6.9 14.2-7.1zM2.9-9.5l-.6.9c8.8-4 18.3 0 23 5.9 5.6 7.1.7 14.5 6.9 22.2 4.3 5.4 10.5 6.4 13.8 6.5 5.8-9.4 1.1-23.8-9.9-34.3C24.9-19 10.5-19 2.9-9.5zm60.7-32.2c-.2-.1-.4-.2-.5-.2 3.3 4.6 2.1 10.6-.8 13.9-3.5 4.1-8.3 2.1-12 6.6-2.6 3.1-2.5 6.8-2.1 8.7 6.1 2.3 13.9-2.1 18.6-9.7 4.8-7.6 3.1-15.9-3.2-19.3zM45 27.3c-3.3.9-8.9 1-15.2-4.8C19.5 13.1 25.9 8 22.7 1.9c-5.5-10.4-17-10.1-21-9.7C-3.7.9-.2 13.7 12.5 23c13.1 9.5 26 12.6 32.5 4.3zM22.2-51.2C20-59 12.1-60.5 9.4-60.8c-4.9 5.1-4.3 14.3 2.9 22.4 7.4 8.3 15.7 12.3 21.3 7.6-2.4.1-6.1-.6-9.6-5.4-5.5-7.9-.5-10.4-1.8-15zM18 42.2h-.7c5.9 3 7.8 9.9 6.7 14.9-1.4 6.1-7.6 6.6-9 13.3-1 4.7 1.1 8.4 2.4 10.3 7.6-.9 13.4-9.7 14.3-20.1.9-10.5-5.2-18.3-13.7-18.4zm121.9-83.6c.9-9.6 9.1-15.9 16.5-17 9-1.4 13 6.6 22.7 5 6.8-1.1 10.7-6 12.5-8.8-5.3-9.7-20.1-12.8-34.6-8.4-14.7 4.4-21.9 16.9-17.5 28.3.1.3.3.6.4.9zm-4.3 33.5c-3.1 4.9-.1 9.8 1.1 11.4 5 .1 9.6-4.5 10.4-12.3.8-7.9-1.1-14.2-6.2-14.9 1.2 1.2 2.6 3.5 1.7 7.7-1.5 6.6-5.2 5.2-7 8.1zm0 11.3h.5c-3.9-2.7-4.5-7.8-3.2-11.2 1.6-4.2 6-3.9 7.7-8.5 1.2-3.2.1-6-.7-7.5-5.4-.1-10.4 5.5-12.1 12.7-1.6 7.4 1.9 13.6 7.8 14.5zm-150-29c-8.4 3.5-14.2-3.3-23.3.6-6.3 2.7-9 8.3-10 11.5 7.4 8.1 22.6 7.6 35.6-.1C1.2-21.4 5.2-35.2-1.8-45.2c-.2-.3-.5-.6-.7-.8 1.5 9.5-5 17.6-11.9 20.4zm276-33.1c.9-9.6 9.1-15.9 16.5-17 9-1.4 13 6.6 22.7 5 6.8-1.1 10.7-6 12.5-8.8-5.3-9.7-20.1-12.8-34.6-8.4-14.7 4.4-21.9 16.9-17.5 28.2.2.4.3.7.4 1zm-41.7 28.2c-1.3-2-2.5-5.6-.1-11 4-8.8 8.7-5.6 12.1-9.1 5.7-5.8 3.1-13.4 2-15.9-6.9-1.7-14.5 3.3-18 13.7-3.5 10.6-2.8 19.7 4 22.3zm-39.3-19.3c-13.2 4.3-14.4-3.8-21.4-4.1-11.7-.4-17.3 9.8-18.9 13.4 4.9 9 17.7 12.3 32 5.9 14.8-6.6 23.9-16.3 20-26-.8 3.3-3.5 8.1-11.7 10.8zm-74.2 8.2c-9-1.2-10.6-10-20.4-11.2-6.8-.8-12 2.7-14.4 4.9 2.3 10.8 15.7 17.9 30.9 17.8 15.4-.1 25.8-10.1 24.7-22.2 0-.3-.1-.7-.1-1-3.7 9-13.3 12.7-20.7 11.7zM96 37.9c-8.6-4-16.4-4.3-19.2 1.2 1.8-.9 5-1.5 9.3 1 7 4.2 3.9 7.9 6.5 11 4.4 5.3 11 3.9 13.2 3.2 2.1-5.6-1.4-12.6-9.8-16.4zM-46.3 59.2c-5.9 2-9.6-2.9-16.1-.6-4.5 1.6-6.6 5.4-7.4 7.5 4.8 6 15.3 6.2 24.6 1.5 9.5-4.8 12.9-14.2 8.4-21.4-.1-.2-.3-.4-.4-.6.6 6.7-4.2 12-9.1 13.6zM.5 34.3c.1-.3.3-.6.4-1-7.6 6-17.8 4.4-23.7-.2-7.2-5.5-4.2-13.9-12.1-19.9-5.5-4.2-11.7-3.6-15-3-3.4 10.5 4.7 23.4 17.8 30.9 13.5 7.7 27.5 4.2 32.6-6.8zm-17.9 30c5.3-2.4 5.5-8.1 5.5-10-4.1-2.9-10.5-1.6-15.4 4.4-5.1 6.1-7.1 12.4-3.2 15.8-.3-1.7-.2-4.4 2.9-7.3 4.8-4.8 7-1.5 10.2-2.9zM91.7 54c-4.1-3.4-2.1-8.3-6.6-12-3.1-2.6-6.8-2.5-8.7-2.1-2.2 6.1 2.1 13.8 9.7 18.5 7.7 4.8 16 3.2 19.3-3.1.1-.2.2-.4.2-.5-4.6 3.3-10.5 2.1-13.9-.8zm27.9-57.5c-.9 3.3-3.6 8.2-11.7 10.8-13.2 4.3-14.4-3.8-21.4-4.1-11.8-.4-17.3 9.8-18.9 13.4 4.9 9 17.7 12.3 32 5.9 14.8-6.6 24-16.2 20-26zM63.5 76.6c7.1-4.5 9.1-15.2 3-26.6-6.2-11.7-14.7-18.7-22.4-14.8 2.8.5 6.9 2.5 9.5 9 4.3 10.6-2.3 12.1-2.1 17.8.3 9.5 9 13.5 12 14.6zm-47.2 79.3c4.2-7 7.9-3.9 11.1-6.5 5.4-4.4 3.9-11 3.2-13.2-5.6-2.1-12.6 1.4-16.5 9.8-4 8.6-4.3 16.4 1.2 19.3-.9-1.9-1.6-5.1 1-9.4zM149.9 26.4c-14.9-6.1-28.3-6.1-32.6 3.6 3-1.7 8.4-3.1 15.9 1 12.2 6.6 7.2 13.1 11.8 18.3 7.8 8.8 19 5.8 22.7 4.4 3.3-9.8-3.2-21.4-17.8-27.3zm24.3-7.2c-1.6-7.3 4.7-11 2.8-18.9-1.3-5.5-5.5-8.4-7.9-9.7-7.6 4.9-9.3 17.2-4.9 28.8 4.5 11.8 15.1 17 24.1 12.7.2-.1.5-.3.7-.4-7.8-.1-13.4-6.5-14.8-12.5zm-79.4 85.9c-3.5 9-13.2 12.7-20.6 11.7-9-1.2-10.6-10-20.4-11.2-6.8-.8-12 2.7-14.4 4.9 2.3 10.8 15.7 17.9 30.9 17.8 15.4-.1 25.8-10.1 24.7-22.2-.1-.3-.1-.7-.2-1zm75.6-115.2c2.8.5 6.9 2.5 9.5 9 4.3 10.6-2.3 12.1-2.1 17.8.3 9.6 9 13.6 12 14.7 7.1-4.5 9.1-15.2 3-26.6-6.2-11.8-14.7-18.7-22.4-14.9zm-67.6 87.7c8.5-4.5 10.3.8 15.1.2 8-1.2 10.6-8.8 11.2-11.4-4.4-5.5-13.6-6.2-22.5-.1-9.3 6.3-14.3 14-10.4 20.2.1-2.5 1.3-6.1 6.6-8.9zm26.6-10.7c.6 6.6-4.3 11.9-9.2 13.6-5.9 2-9.6-2.9-16.1-.6-4.5 1.6-6.6 5.4-7.4 7.5 4.8 6 15.3 6.2 24.6 1.5 9.5-4.8 12.9-14.2 8.4-21.4 0-.2-.1-.4-.3-.6zm14.4-12.5c-7.2-5.5-4.2-13.9-12.1-19.9-5.5-4.2-11.7-3.6-15-3-3.4 10.5 4.7 23.4 17.8 30.9 13.4 7.6 27.4 4.2 32.5-6.9.1-.3.3-.6.4-1-7.5 6.1-17.7 4.5-23.6-.1zM196.4-18c-3.4-2.9-1.8-6.9-5.5-10.1-2.6-2.2-5.7-2.1-7.3-1.8-1.9 5.1 1.8 11.6 8.1 15.6 6.4 4 13.4 2.7 16.2-2.6.1-.1.1-.3.2-.4-3.9 2.7-8.8 1.7-11.7-.7zm60.1-14c4.9-4.8 7.2-1.4 10.3-2.9 5.3-2.4 5.5-8.1 5.5-10-4.1-2.9-10.5-1.6-15.4 4.4-5.1 6.1-7.1 12.4-3.2 15.8-.4-1.6-.2-4.3 2.8-7.3zm16.2-12.5c1.7 4.4-.6 9-3.6 11.1-3.7 2.6-7.2-.1-11.1 2.7-2.8 2-3.5 5-3.6 6.6 4.4 3.1 11.7 1.3 17.1-3.8 5.6-5.2 6.1-12.3 1.6-16.3-.2-.1-.3-.2-.4-.3zM314.1-78c-.9 3.3-3.6 8.2-11.7 10.8-13.2 4.3-14.4-3.8-21.4-4.1-11.7-.4-17.3 9.8-18.9 13.4 4.9 9 17.7 12.3 32 5.9 14.8-6.5 23.9-16.2 20-26zm-78.9 11.9c-.2-.1-.4-.1-.7-.2 4.5 4.9 3.9 12 1 16.3-3.5 5.2-9.4 3.6-13.1 9.3-2.6 4-2 8.2-1.3 10.5 7.4 1.8 15.9-4.3 20.4-13.8 4.6-9.6 1.6-19.1-6.3-22.1zm-7.1 68.4c-4.1-3.4-2.1-8.3-6.6-12-3.1-2.6-6.8-2.5-8.7-2.1-2.2 6 2.2 13.8 9.7 18.5 7.7 4.8 16 3.2 19.3-3.1.1-.2.2-.4.2-.5-4.6 3.2-10.5 2-13.9-.8zm4.4-16.2c-8.6-4-16.4-4.3-19.2 1.2 1.8-.9 5-1.5 9.3 1 7 4.2 3.9 7.9 6.5 11 4.4 5.3 11 3.9 13.2 3.2 2.1-5.6-1.4-12.5-9.8-16.4zm-32.4-17.7c-7.2-3.4-13.8-3.6-16.1 1 1.5-.7 4.2-1.3 7.8.9 5.9 3.5 3.3 6.6 5.4 9.3 3.7 4.5 9.2 3.3 11.1 2.7 1.8-4.8-1.2-10.6-8.2-13.9zM-40-28.1c11.8-7.3 14.9.3 21.8-1.2C-6.7-31.7-3.8-42.9-3.1-46.8c-6.9-7.6-20.1-7.7-32.5 2-12.8 9.9-19.3 21.5-13.1 30.1 0-3.5 1.5-8.9 8.7-13.4zm1.8-40c.9-9.6 9.1-15.9 16.5-17 9-1.4 13 6.6 22.7 5 6.8-1.1 10.7-6 12.5-8.8-5.3-9.7-20.1-12.8-34.6-8.4C-35.8-92.9-43-80.4-38.6-69c.2.3.3.6.4.9zm81.5-19.3c8.4 7.8 3 11.9 5.6 17 4.4 8.6 13.9 8.5 17.1 8.2 4.5-7.1 1.8-17.6-8.5-25.4-10.6-8-21.2-10.7-26.6-3.9 2.7-.6 7.2-.6 12.4 4.1zM-76.3 112c.9-9.6 9.1-15.9 16.5-17 9-1.4 13 6.6 22.7 5 6.8-1.1 10.7-6 12.5-8.8-5.3-9.7-20.1-12.8-34.6-8.4-14.8 4.4-22 16.8-17.5 28.2.1.3.3.6.4 1zm12.5-55.6c8.5-4.5 10.3.8 15.1.2 8-1.2 10.6-8.8 11.2-11.4-4.4-5.5-13.6-6.2-22.5-.1-9.3 6.3-14.3 14-10.4 20.2.1-2.5 1.4-6.1 6.6-8.9zM65-60.8c.2-.2.3-.4.5-.7-7.2 3.2-15-.2-18.7-5.1-4.5-5.9-.4-11.9-5.5-18.3-3.5-4.4-8.5-5.3-11.3-5.4-4.8 7.7-1.1 19.6 7.8 28.2 9.1 8.8 20.9 9 27.2 1.3zm-55.1-.5c6.5-1.4 12.4 2.6 14.7 7.3 2.8 5.6-1.6 9.9 1.5 16 2.2 4.2 6.2 5.8 8.4 6.3 5.3-5.5 4.1-16-1.8-24.6-6-8.8-15.8-10.9-22.3-5.5-.1.2-.3.4-.5.5zM2.5-76.5c-13.2 4.3-14.4-3.8-21.4-4.1-11.7-.4-17.3 9.8-18.9 13.4 4.9 9 17.7 12.3 32 5.9 14.8-6.6 23.9-16.3 20-26-.8 3.3-3.5 8.2-11.7 10.8zM62.1 77.4c.2-.1.5-.3.7-.4-7.9-.2-13.5-6.5-14.8-12.5-1.6-7.3 4.7-11 2.8-18.9-1.3-5.5-5.5-8.4-7.9-9.7-7.6 4.9-9.3 17.2-4.9 28.8 4.4 11.8 15.1 17 24.1 12.7zm-30.4 59.2c-.2-.1-.4-.2-.5-.2 3.3 4.6 2.1 10.6-.8 13.9-3.5 4.1-8.3 2.1-12 6.6-2.6 3.1-2.5 6.8-2.1 8.7 6.1 2.3 13.9-2.1 18.6-9.7 4.8-7.6 3.1-15.9-3.2-19.3zm21.7-34.9c13.9-.4 12.8 7.7 19.4 9.9 11.1 3.7 19.3-4.5 21.9-7.5-2.1-10-13.5-16.8-29.1-14.7-16 2.2-27.5 8.9-26.4 19.4 1.7-2.9 5.6-6.8 14.2-7.1zm-55.5 70c-11.2-10.6-25.5-10.6-33.2-1.1-.2.3-.4.5-.6.8 8.8-4 18.3 0 23 5.9 5.6 7.1.7 14.5 6.9 22.2 4.3 5.4 10.5 6.4 13.8 6.5 5.8-9.5 1.1-23.9-9.9-34.3zM-40 134.8c-.2-.3-.4-.6-.6-.8 1.5 9.6-5 17.6-11.9 20.5-8.4 3.5-14.2-3.3-23.3.6-6.3 2.7-9 8.3-10 11.5 7.4 8.1 22.6 7.6 35.6-.1 13.3-7.9 17.3-21.7 10.2-31.7zm-38.1 17.1c11.8-7.3 14.9.3 21.8-1.2 11.5-2.4 14.4-13.6 15.1-17.5-6.9-7.6-20.1-7.7-32.5 2-12.8 9.9-19.3 21.5-13.1 30.1 0-3.5 1.4-8.8 8.7-13.4zm69.8 50.6c-10.3-9.4-3.9-14.5-7.1-20.6-5.5-10.4-17-10.1-21-9.7-5.4 8.7-1.9 21.5 10.8 30.8 13 9.6 26 12.7 32.5 4.4-3.4.8-8.9.9-15.2-4.9zM-339.5 373.2c-10.6-8-21.2-10.7-26.6-3.9 2.7-.7 7.3-.7 12.4 4.1 8.4 7.8 3 11.9 5.6 17 4.4 8.6 13.9 8.5 17.1 8.2 4.5-7.1 1.8-17.7-8.5-25.4zm1.1-34.6c3.3-7.4-1.8-13.6-3.7-15.6-7 .8-12.4 8.2-12 19.1.4 11.2 4.3 19.5 11.6 19.5-1.9-1.4-4.3-4.4-3.9-10.3.5-9.6 6.1-8.3 8-12.7zm6.5 61.3c.2-.2.3-.4.5-.7-7.2 3.2-15-.2-18.7-5.1-4.5-5.9-.4-11.9-5.5-18.3-3.5-4.4-8.5-5.3-11.3-5.4-4.8 7.7-1.1 19.6 7.8 28.2 9 8.8 20.8 9 27.2 1.3zm-32.3 4.6c-6-8.8-15.8-10.9-22.3-5.5-.2.1-.3.3-.5.5 6.5-1.4 12.4 2.6 14.7 7.3 2.8 5.6-1.6 9.9 1.5 16 2.2 4.2 6.2 5.8 8.4 6.3 5.2-5.6 4.1-16-1.8-24.6zm-7.5-52.6c5.6-5.2 6.1-12.3 1.6-16.3-.1-.1-.3-.2-.4-.3 1.7 4.4-.6 9-3.6 11.1-3.7 2.6-7.2-.1-11.1 2.7-2.8 2-3.5 5-3.6 6.6 4.4 3.2 11.7 1.3 17.1-3.8zm-22.7 32.3c-13.2 4.3-14.4-3.8-21.4-4.1-11.7-.4-17.3 9.8-18.9 13.4 4.9 9 17.7 12.3 32 5.9 14.8-6.6 23.9-16.3 20-26-.9 3.3-3.6 8.2-11.7 10.8zm31.1 45.7c-2.4.1-6.1-.6-9.6-5.4-5.6-7.8-.5-10.3-1.9-15-2.2-7.8-10.1-9.3-12.8-9.6-4.9 5.1-4.3 14.3 2.9 22.4 7.5 8.3 15.8 12.2 21.4 7.6zm22.5-107h-.7c5.9 3 7.8 9.9 6.7 14.9-1.4 6.1-7.6 6.6-9 13.3-1 4.7 1.1 8.4 2.4 10.3 7.6-.9 13.4-9.7 14.3-20.1.9-10.5-5.2-18.3-13.7-18.4zm49.2-26.5c.9-9.6 9.1-15.9 16.5-17 9-1.4 13 6.6 22.7 5 6.8-1.1 10.7-6 12.5-8.8-5.3-9.7-20.1-12.8-34.6-8.4-14.7 4.4-21.9 16.9-17.5 28.3.1.3.2.6.4.9zm-100.5-6c12.2 6.6 7.2 13.1 11.8 18.3 7.8 8.8 19 5.8 22.7 4.4 3.2-9.7-3.3-21.3-17.9-27.3-14.9-6.1-28.3-6.1-32.6 3.6 3.1-1.7 8.5-3.1 16 1zm92.6-38.6c5.4-4.4 3.9-11 3.2-13.2-5.6-2.1-12.6 1.4-16.5 9.8-4 8.6-4.3 16.4 1.2 19.3-.9-1.8-1.6-5 1-9.3 4.2-7.2 7.9-4 11.1-6.6zm26.2-27.8c13.9-.4 12.8 7.7 19.4 9.9 11.1 3.7 19.3-4.5 21.9-7.5-2.1-10-13.5-16.8-29.1-14.7-16 2.2-27.5 8.9-26.4 19.4 1.7-2.9 5.7-6.8 14.2-7.1zm-40.5 84c-3.3.9-8.9 1-15.2-4.8-10.3-9.4-3.9-14.5-7.1-20.6-5.5-10.4-17-10.1-21-9.7-5.4 8.7-1.9 21.5 10.8 30.8 13.1 9.5 26 12.6 32.5 4.3zm-42.1-36.8c-.2.3-.4.5-.6.8 8.8-4 18.3 0 23 5.9 5.6 7.1.7 14.5 6.9 22.2 4.3 5.4 10.5 6.4 13.8 6.5 5.8-9.4 1.1-23.8-9.9-34.3-11.2-10.6-25.6-10.6-33.2-1.1zm19.3-41.7c-2.2-7.8-10.1-9.3-12.8-9.6-4.9 5.1-4.3 14.3 2.9 22.4 7.4 8.3 15.7 12.3 21.3 7.6-2.4.1-6.1-.6-9.6-5.4-5.6-7.9-.5-10.4-1.8-15zm113.3 43.3c-3.1 4.9-.1 9.8 1.1 11.4 5 .1 9.6-4.5 10.4-12.3.8-7.9-1.1-14.2-6.2-14.9 1.2 1.2 2.6 3.5 1.7 7.7-1.4 6.6-5.2 5.2-7 8.1zm-149.9-17.7c-8.4 3.5-14.2-3.3-23.3.6-6.3 2.7-9 8.3-10 11.5 7.4 8.1 22.6 7.6 35.6-.1 13.2-7.8 17.2-21.7 10.2-31.6-.2-.3-.4-.6-.6-.8 1.5 9.5-5 17.6-11.9 20.4zm150 28.9h.5c-3.9-2.7-4.5-7.8-3.2-11.2 1.6-4.2 6-3.9 7.7-8.5 1.2-3.2.1-6-.7-7.5-5.4-.1-10.4 5.5-12.1 12.7-1.7 7.5 1.9 13.6 7.8 14.5zm-72-45c-.2-.1-.4-.2-.5-.2 3.3 4.6 2.1 10.6-.8 13.9-3.5 4.1-8.3 2.1-12 6.6-2.6 3.1-2.5 6.8-2.1 8.7 6.1 2.3 13.9-2.1 18.6-9.7 4.8-7.6 3.1-15.9-3.2-19.3zm76.3.3c.9-9.6 9.1-15.9 16.5-17 9-1.4 13 6.6 22.7 5 6.8-1.1 10.7-6 12.5-8.8-5.3-9.7-20.1-12.8-34.6-8.4-14.7 4.4-21.9 16.9-17.5 28.3.1.2.3.6.4.9zM-97.2 222c.9-9.6 9.1-15.9 16.5-17 9-1.4 13 6.6 22.7 5 6.8-1.1 10.7-6 12.5-8.8-5.3-9.7-20.1-12.8-34.6-8.4-14.7 4.4-21.9 16.9-17.5 28.3.1.3.3.6.4.9zm-81 8.8c-13.2 4.3-14.4-3.8-21.4-4.1-11.7-.4-17.3 9.8-18.9 13.4 4.9 9 17.7 12.3 32 5.9 14.8-6.6 23.9-16.3 20-26-.9 3.4-3.6 8.2-11.7 10.8zm39.3 19.4c-1.3-2-2.5-5.6-.1-11 4-8.8 8.7-5.6 12.1-9.1 5.7-5.8 3.1-13.4 2-15.9-6.9-1.7-14.5 3.3-18 13.7-3.5 10.6-2.8 19.7 4 22.3zm-113.5-11.1c-9-1.2-10.6-10-20.4-11.2-6.8-.8-12 2.7-14.4 4.9 2.3 10.8 15.7 17.9 30.9 17.8 15.4-.1 25.8-10.1 24.7-22.2 0-.3-.1-.7-.1-1-3.7 9-13.3 12.7-20.7 11.7zm-10.4 79.4c-8.6-4-16.4-4.3-19.2 1.2 1.8-.9 5-1.5 9.3 1 7 4.2 3.9 7.9 6.5 11 4.4 5.3 11 3.9 13.2 3.2 2.1-5.5-1.4-12.5-9.8-16.4zm-95.5-3.6c.1-.3.3-.6.4-1-7.6 6-17.8 4.4-23.7-.2-7.2-5.5-4.2-13.9-12.1-19.9-5.5-4.2-11.7-3.6-15-3-3.4 10.5 4.7 23.4 17.8 30.9 13.5 7.7 27.4 4.3 32.6-6.8zm-17.9 30.1c5.3-2.4 5.5-8.1 5.5-10-4.1-2.9-10.5-1.6-15.4 4.4-5.1 6.1-7.1 12.4-3.2 15.8-.3-1.7-.2-4.4 2.9-7.3 4.7-4.8 7-1.5 10.2-2.9zm-28.9-5.1c-5.9 2-9.6-2.9-16.1-.6-4.5 1.6-6.6 5.4-7.4 7.5 4.8 6 15.3 6.2 24.6 1.5 9.5-4.8 12.9-14.2 8.4-21.4-.1-.2-.3-.4-.4-.6.6 6.7-4.2 12-9.1 13.6zm109.8 17.4c7.1-4.5 9.1-15.2 3-26.6-6.2-11.7-14.7-18.7-22.4-14.8 2.8.5 6.9 2.5 9.5 9 4.3 10.6-2.3 12.1-2.1 17.8.3 9.5 9 13.5 12 14.6zm28.2-22.6c-4.1-3.4-2.1-8.3-6.6-12-3.1-2.6-6.8-2.5-8.7-2.1-2.2 6.1 2.1 13.8 9.7 18.5 7.7 4.8 16 3.2 19.3-3.1.1-.2.2-.4.2-.5-4.6 3.3-10.5 2.1-13.9-.8zm27.9-57.5c-.9 3.3-3.6 8.2-11.7 10.8-13.2 4.3-14.4-3.8-21.4-4.1-11.7-.4-17.3 9.8-18.9 13.4 4.9 9 17.7 12.3 32 5.9 14.8-6.6 23.9-16.3 20-26zm24.2 57.9c-7.2-5.5-4.2-13.9-12.1-19.9-5.5-4.2-11.7-3.6-15-3-3.4 10.5 4.7 23.4 17.8 30.9 13.4 7.6 27.4 4.2 32.5-6.9.1-.3.3-.6.4-1-7.5 6.1-17.7 4.5-23.6-.1zm30.4-35.2c-1.6-7.3 4.7-11 2.8-18.9-1.3-5.5-5.5-8.4-7.9-9.7-7.6 4.9-9.3 17.2-4.9 28.8 4.5 11.8 15.1 17 24.1 12.7.2-.1.5-.3.7-.4-7.9-.2-13.4-6.5-14.8-12.5zm-24.3 7.2c-14.9-6.1-28.3-6.1-32.6 3.6 3-1.7 8.4-3.1 15.9 1 12.2 6.6 7.2 13.1 11.8 18.3 7.8 8.8 19 5.8 22.7 4.4 3.2-9.8-3.3-21.4-17.8-27.3zm46.5-44.4c-3.4-2.9-1.8-6.9-5.5-10.1-2.6-2.2-5.7-2.1-7.3-1.8-1.9 5.1 1.8 11.6 8.1 15.6 6.4 4 13.4 2.7 16.2-2.6.1-.1.1-.3.2-.4-3.9 2.7-8.9 1.7-11.7-.7zm-26.1 7.9c2.8.5 6.9 2.5 9.5 9 4.3 10.6-2.3 12.1-2.1 17.8.3 9.6 9 13.6 12 14.7 7.1-4.5 9.1-15.2 3-26.6-6.1-11.8-14.6-18.7-22.4-14.9zM-264 385.8c-3.5 9-13.2 12.7-20.6 11.7-9-1.2-10.6-10-20.4-11.2-6.8-.8-12 2.7-14.4 4.9 2.3 10.8 15.7 17.9 30.9 17.8 15.4-.1 25.8-10.1 24.7-22.2-.1-.4-.2-.7-.2-1zm8-27.5c8.5-4.5 10.3.8 15.1.2 8-1.2 10.6-8.8 11.2-11.4-4.4-5.5-13.6-6.2-22.5-.1-9.3 6.3-14.3 14-10.4 20.2.1-2.5 1.3-6.1 6.6-8.9zm26.6-10.7c.6 6.6-4.3 11.9-9.2 13.6-5.9 2-9.6-2.9-16.1-.6-4.5 1.6-6.6 5.4-7.4 7.5 4.8 6 15.3 6.2 24.6 1.5 9.5-4.8 12.9-14.2 8.4-21.4 0-.2-.1-.4-.3-.6zm70.7-98.5c-7.2-3.4-13.8-3.6-16.1 1 1.5-.7 4.2-1.3 7.8.9 5.9 3.5 3.3 6.6 5.4 9.3 3.7 4.5 9.2 3.3 11.1 2.7 1.8-4.8-1.2-10.7-8.2-13.9zm72.6-12.9c1.7 4.4-.6 9-3.6 11.1-3.7 2.6-7.2-.1-11.1 2.7-2.8 2-3.5 5-3.6 6.6 4.4 3.1 11.7 1.3 17.1-3.8 5.6-5.2 6.1-12.3 1.6-16.3-.2-.1-.3-.2-.4-.3zm-219.3 146.2c13.9-.4 12.8 7.7 19.4 9.9 11.1 3.7 19.3-4.5 21.9-7.5-2.1-10-13.5-16.8-29.1-14.7-16 2.2-27.5 8.9-26.4 19.4 1.7-2.9 5.6-6.8 14.2-7.1zm260.7-179.7c-.9 3.3-3.6 8.2-11.7 10.8-13.2 4.3-14.4-3.8-21.4-4.1-11.7-.4-17.3 9.8-18.9 13.4 4.9 9 17.7 12.3 32 5.9 14.8-6.5 23.9-16.2 20-26zm-270.8-9.4c8.4 7.8 3 11.9 5.6 17 4.4 8.6 13.9 8.5 17.1 8.2 4.5-7.1 1.8-17.6-8.5-25.4-10.6-8-21.2-10.7-26.6-3.9 2.7-.7 7.2-.7 12.4 4.1zm184.8 89.7c-4.1-3.4-2.1-8.3-6.6-12-3.1-2.6-6.8-2.5-8.7-2.1-2.2 6.1 2.1 13.8 9.7 18.5 7.7 4.8 16 3.2 19.3-3.1.1-.2.2-.4.2-.5-4.6 3.2-10.5 2-13.9-.8zm4.4-16.2c-8.6-4-16.4-4.3-19.2 1.2 1.8-.9 5-1.5 9.3 1 7 4.2 3.9 7.9 6.5 11 4.4 5.3 11 3.9 13.2 3.2 2.1-5.6-1.5-12.5-9.8-16.4zm2.7-52.2c-.2-.1-.4-.1-.7-.2 4.5 4.9 3.9 12 1 16.3-3.5 5.2-9.4 3.6-13.1 9.3-2.6 4-2 8.2-1.3 10.5 7.4 1.8 15.9-4.3 20.4-13.8 4.6-9.6 1.6-19.1-6.3-22.1zm21.3 34.1c4.9-4.8 7.2-1.4 10.3-2.9 5.3-2.4 5.5-8.1 5.5-10-4.1-2.9-10.5-1.6-15.4 4.4-5.1 6.1-7.1 12.4-3.2 15.8-.4-1.6-.2-4.3 2.8-7.3zm-332.8 143.9c.9-9.6 9.1-15.9 16.5-17 9-1.4 13 6.6 22.7 5 6.8-1.1 10.7-6 12.5-8.8-5.3-9.7-20.1-12.8-34.6-8.4-14.7 4.4-21.9 16.9-17.5 28.3.1.3.2.6.4.9zm38.1-180c.9-9.6 9.1-15.9 16.5-17 9-1.4 13 6.6 22.7 5 6.8-1.1 10.7-6 12.5-8.8-5.3-9.7-20.1-12.8-34.6-8.4-14.7 4.4-21.9 16.9-17.5 28.3.1.3.3.6.4.9zm-25.6 124.5c8.5-4.5 10.3.8 15.1.2 8-1.2 10.6-8.8 11.2-11.4-4.4-5.5-13.6-6.2-22.5-.1-9.3 6.3-14.3 14-10.4 20.2.1-2.5 1.3-6.2 6.6-8.9zm23.8-84.5c11.8-7.3 14.9.3 21.8-1.2 11.5-2.4 14.4-13.6 15.1-17.5-6.9-7.6-20.1-7.7-32.5 2-12.8 9.9-19.3 21.5-13.1 30.1 0-3.5 1.4-8.9 8.7-13.4zm105-32.8c.2-.2.3-.4.5-.7-7.2 3.2-15-.2-18.7-5.1-4.5-5.9-.4-11.9-5.5-18.3-3.5-4.4-8.5-5.3-11.3-5.4-4.8 7.7-1.1 19.6 7.8 28.2 9 8.9 20.8 9.1 27.2 1.3zm-55.1-.4c6.5-1.4 12.4 2.6 14.7 7.3 2.8 5.6-1.6 9.9 1.5 16 2.2 4.2 6.2 5.8 8.4 6.3 5.3-5.5 4.1-16-1.8-24.6-6-8.8-15.8-10.9-22.3-5.5-.1.2-.3.4-.5.5zm-7.4-15.2c-13.2 4.3-14.4-3.8-21.4-4.1-11.7-.4-17.3 9.8-18.9 13.4 4.9 9 17.7 12.3 32 5.9 14.8-6.6 23.9-16.3 20-26-.8 3.3-3.5 8.1-11.7 10.8zm-10.9 279c-10.3-9.4-3.9-14.5-7.1-20.6-5.5-10.4-17-10.1-21-9.7-5.4 8.7-1.9 21.5 10.8 30.8 13 9.6 26 12.7 32.5 4.4-3.3.8-8.8.9-15.2-4.9zm-69.7-50.6c11.8-7.3 14.9.3 21.8-1.2 11.5-2.4 14.4-13.6 15.1-17.5-6.9-7.6-20.1-7.7-32.5 2-12.8 9.9-19.3 21.5-13.1 30.1-.1-3.5 1.4-8.8 8.7-13.4zm94.4 4c4.2-7 7.9-3.9 11.1-6.5 5.4-4.4 3.9-11 3.2-13.2-5.6-2.1-12.6 1.4-16.5 9.8-4 8.6-4.3 16.4 1.2 19.3-.9-1.9-1.6-5.1 1-9.4zm15.4-19.3c-.2-.1-.4-.2-.5-.2 3.3 4.6 2.1 10.6-.8 13.9-3.5 4.1-8.3 2.1-12 6.6-2.6 3.1-2.5 6.8-2.1 8.7 6.1 2.3 13.9-2.1 18.6-9.7 4.8-7.6 3.1-15.9-3.2-19.3zm-33.8 35.1c-11.2-10.6-25.5-10.6-33.2-1.1-.2.3-.4.5-.6.8 8.8-4 18.3 0 23 5.9 5.6 7.1.7 14.5 6.9 22.2 4.3 5.4 10.5 6.4 13.8 6.5 5.8-9.5 1.1-23.9-9.9-34.3zm-37.9-36.9c-.2-.3-.4-.6-.6-.8 1.5 9.6-5 17.6-11.9 20.5-8.4 3.5-14.2-3.3-23.3.6-6.3 2.7-9 8.3-10 11.5 7.4 8.1 22.6 7.6 35.6-.1 13.2-7.9 17.2-21.7 10.2-31.7zm102.1-57.4c.2-.1.5-.3.7-.4-7.9-.2-13.5-6.5-14.8-12.5-1.6-7.3 4.7-11 2.8-18.9-1.3-5.5-5.5-8.4-7.9-9.7-7.6 4.9-9.3 17.2-4.9 28.8 4.4 11.8 15 16.9 24.1 12.7z"/><path d="M397.9-111.5l-2.2-.7 1.1-6.8c.2-1.1.7-1.8 1.7-1.8s1.9.6 3.1 1.4l-3.7 7.9zm5.9 0l-2.2-.7 1.1-6.8c.2-1.1.7-1.8 1.7-1.8s1.9.6 3.1 1.4l-3.7 7.9z"/><path fill-rule="evenodd" clip-rule="evenodd" fill="#394D09" d="M555.5-201.8c-2.6 1.1-7.1 1.9-12.9-2-9.5-6.3-5-11.2-8.4-15.8-5.8-7.7-15.1-6-18.2-5.2-3.3 7.7 1.2 17.7 12.7 23.6 11.7 6.1 22.6 6.9 26.8-.6zm25.4-19.5c12.3-6.4 14.9 1.4 21.8.4 11.6-1.6 15.4-12.5 16.4-16.3-6.3-8.1-19.5-9.2-32.6-.5-13.5 9-20.8 20-15.3 29 .3-3.4 2.1-8.6 9.7-12.6zM548.3-173c-2.3-10.9-7.5-18.5-14.7-17.2 2.1 1.1 5 3.6 5.6 9.5 1 9.6-4.7 9.2-5.9 13.9-2 7.9 4.1 13.1 6.3 14.7 6.9-2.1 10.9-10.3 8.7-20.9zm-11.7-7.3c.2-4.8-2.5-8.1-4.1-9.7-7.3 2.2-11.6 11.8-10.7 22.2.9 10.6 8.2 17.3 16.6 15.9.2 0 .4-.1.7-.2-6.4-2-9.4-8.4-9.1-13.6.3-6.2 6.3-7.8 6.6-14.6zm18.8-59.5c-3.7-5.1-.1-10.1-4.2-15.6-2.8-3.8-7.1-4.7-9.4-4.8-4.3 6.3-1.4 16.5 5.9 24 7.4 7.6 17.4 8.1 22.9 1.7.2-.2.3-.4.4-.5-6.1 2.5-12.5-.6-15.6-4.8zm-38.7 13.6c-.1.2-.2.5-.4.7 6.6-4.4 14.8-2.3 19.3 1.8 5.5 5 2.4 11.7 8.5 17.1 4.2 3.8 9.3 3.8 12 3.5 3.5-8.4-2.2-19.5-12.4-26.5-10.3-7.1-22-5.3-27 3.4zM489-179.1c-.2.2-.4.3-.6.5 7.8-1.1 14.4 4.2 16.7 9.9 2.8 6.9-2.8 11.6.4 19.1 2.2 5.2 6.8 7.4 9.4 8.2 6.7-6.1 6.3-18.5 0-29.3-6.4-10.8-17.7-14.2-25.9-8.4zm25.3 46.5c3.1-1.5 8.6-2.4 15.8 2.2 11.7 7.5 6.2 13.6 10.5 19.1 7.1 9.3 18.5 7.1 22.3 6.1 3.9-9.5-1.8-21.5-15.8-28.5-14.5-7.3-27.8-8.2-32.8 1.1zm50.6-124.6c-8.7-7-17.6-9.4-22.3-3.9 2.3-.5 6.1-.4 10.3 3.7 6.9 6.8 2.3 10.1 4.3 14.5 3.5 7.3 11.5 7.5 14.2 7.3 4.1-5.9 2-14.8-6.5-21.6zm-27.4-57.1c11.7 7.5 6.2 13.6 10.5 19.1 7.1 9.3 18.5 7.1 22.3 6.1 3.9-9.5-1.8-21.5-15.8-28.5-14.5-7.2-27.7-8.1-32.8 1.1 3.1-1.4 8.5-2.4 15.8 2.2zm-1.1 31.5c12.8 8.6 27 6.2 32.9-4.5.2-.3.3-.6.5-.9-8 5.5-18 3.1-23.6-1.9-6.7-6.1-3.1-14.2-10.6-20.7-5.2-4.6-11.4-4.5-14.7-4.1-4.1 10.2 3 23.6 15.5 32.1zm73.9 152.7c-2.7 2.2-7.8 4.4-15.9 1.7-13.2-4.5-9.3-11.7-14.7-16.1-9.2-7.3-19.7-2.5-23.1-.5-1.5 10.1 6.9 20.4 22.2 23.9 15.7 3.5 28.8 1.2 31.5-9zm-29.5-122.1c-3-9.2 2-18.2 8.3-22.2 7.7-4.8 14.5.9 22.8-4.5 5.8-3.7 7.5-9.7 7.9-13-8.7-6.8-23.6-3.7-35.1 6.1-11.7 9.9-13.4 24.3-4.7 32.9.3.3.5.5.8.7zm7 93c-14.5-5.3-27.7.5-30.9 12.2-.1.3-.2.7-.2 1 6.4-7.2 16.8-7.3 23.4-3.8 8 4.3 6.5 13 15.2 17.6 6.1 3.2 12.2 1.6 15.2.4 1.6-10.9-8.5-22.2-22.7-27.4zm32.4-76.4l-.6-.9c.8 9.6-6.3 17.2-13.4 19.6-8.6 2.8-13.9-4.3-23.2-1.1-6.5 2.2-9.6 7.6-10.8 10.7 6.8 8.7 22 9.2 35.5 2.5 13.8-6.8 18.8-20.3 12.5-30.8zm-111.1-7.1c.2.1.4.1.6.1-4-4-3.8-10.1-1.6-13.9 2.7-4.6 7.8-3.5 10.8-8.5 2-3.5 1.3-7.1.7-9-6.4-1.2-13.3 4.4-16.8 12.6-3.6 8.6-.6 16.5 6.3 18.7zm.5 167.9c-4.6 5.2-2 11.5-.9 13.6 5.9 1.1 12.2-3.5 14.6-12.4 2.5-9.2 1.5-16.9-4.4-18.8 1.2 1.7 2.4 4.7.6 9.4-3 7.6-7.2 5.1-9.9 8.2zm52.3-28.6c.2-.3.3-.6.5-.9-8 5.5-18 3.1-23.6-1.9-6.7-6.1-3.1-14.2-10.6-20.7-5.2-4.6-11.4-4.5-14.7-4.1-4.1 10.2 2.9 23.7 15.5 32.1 12.8 8.5 27 6.1 32.9-4.5zm-12 44.4c3.5 7.3 11.5 7.5 14.2 7.3 4-5.9 1.9-14.8-6.6-21.6-8.7-7-17.6-9.4-22.3-3.9 2.3-.5 6.1-.4 10.3 3.7 6.9 6.8 2.3 10.1 4.4 14.5zm14-126.6c-4.6 6-3.9 13.1 1.1 16.4.1.1.3.2.4.2-2.4-4.1-.9-9 1.7-11.6 3.2-3.1 7.1-1.1 10.5-4.6 2.4-2.4 2.6-5.5 2.5-7.1-4.8-2.3-11.6.7-16.2 6.7zm17.8 95.1c7.7-4.8 14.5.9 22.8-4.5 5.8-3.7 7.5-9.7 7.9-13-8.7-6.8-23.6-3.7-35.1 6.1C565.6-92 564-77.6 572.6-69c.2.2.5.5.8.7-3.1-9.2 2-18.2 8.3-22.2zm33-185.7c-10.4 9.2-14.8 2.3-21.3 4.8-10.9 4.3-11.9 15.9-12 19.8 8.1 6.3 21.1 4.2 31.7-7.4 10.9-11.9 15.4-24.5 7.9-31.8.7 3.4.1 9-6.3 14.6zm-15.8 96.8c5.5-3 10 1.2 16-2.1 4.2-2.3 5.6-6.4 6-8.6-5.7-5.1-16.1-3.6-24.5 2.6-8.6 6.3-10.3 16.1-4.7 22.5l.5.5c-1.7-6.5 2.1-12.5 6.7-14.9zM480.9-98c-8.6 2.8-13.9-4.3-23.2-1.1-6.5 2.2-9.6 7.6-10.8 10.7 6.8 8.7 22 9.2 35.5 2.5 13.8-6.8 18.8-20.3 12.5-30.8l-.6-.9c.8 9.7-6.3 17.3-13.4 19.6zm25.5-116c-1.3 3.2-4.5 7.7-12.9 9.4-13.6 2.7-13.9-5.5-20.8-6.5-11.6-1.8-18.3 7.7-20.3 11.1 3.8 9.5 16.2 14.3 31.1 9.6 15.5-4.9 25.7-13.4 22.9-23.6zm-37.9 57.5c-8.4-3.5-16.3-.5-18.5 6.3-.1.2-.1.4-.1.6 4-4 10-3.8 13.8-1.6 4.6 2.7 3.5 7.8 8.5 10.7 3.5 2 7.1 1.3 8.9.7 1.3-6.4-4.4-13.3-12.6-16.7zm45.3 16c-2.8 0-7.2-1.3-10.9-7.3-6-9.7.3-12.3-.9-17.9-1.9-9.4-11.1-11.9-14.3-12.5-6.2 5.6-6.4 16.5 1.5 26.7 8.1 10.6 17.6 16.1 24.6 11zM511.1-256c-4.6 5.2-2 11.5-.9 13.6 5.9 1.1 12.2-3.5 14.6-12.4 2.5-9.2 1.5-16.9-4.4-18.8 1.2 1.7 2.4 4.7.6 9.4-3 7.6-7.2 5.2-9.9 8.2zm-48.9 121.5c9.2 2.5 16.9 1.5 18.7-4.4-1.6 1.2-4.7 2.4-9.3.5-7.6-3-5.2-7.1-8.2-9.8-5.2-4.5-11.5-2-13.6-.9-1.2 6 3.5 12.2 12.4 14.6zm-13.3-38c-7.6 5.9-10.3.9-14.9 2.4-7.7 2.5-8.9 10.4-9.1 13.1 5.3 4.7 14.4 3.8 22.2-3.7 8-7.7 11.7-16.2 6.9-21.6.2 2.4-.5 6.2-5.1 9.8zm120.7-7.1c-4.8 3.2-4.1 8.9-3.7 10.8 4.5 2.2 10.6-.2 14.5-6.9 4-6.9 4.9-13.4.5-16.1.6 1.6.9 4.3-1.6 7.7-4 5.5-6.9 2.6-9.7 4.5zM465.3-54.4c9.1-.3 12.1 8.1 22 7.6 6.9-.3 11.3-4.7 13.4-7.3-4.1-10.2-18.5-15-33.4-12.4-15.1 2.7-23.7 14.2-20.6 26 .1.3.2.7.3 1 1.9-9.4 10.8-14.6 18.3-14.9zm41.2-20.8c2.7-4.6 7.8-3.5 10.8-8.5 2-3.5 1.3-7.1.7-9-6.4-1.2-13.3 4.4-16.8 12.6-3.5 8.4-.5 16.3 6.4 18.5.2.1.4.1.6.1-4.2-3.9-3.9-9.9-1.7-13.7zm-50.9-27.2c12.3-6.4 14.9 1.4 21.8.4 11.6-1.6 15.4-12.5 16.4-16.3-6.3-8.1-19.5-9.2-32.6-.5-13.5 9-20.8 20-15.3 29 .3-3.4 2.1-8.6 9.7-12.6zm32.8 59.3c-13.6 2.7-13.9-5.5-20.8-6.5-11.6-1.8-18.3 7.7-20.3 11.1 3.8 9.5 16.2 14.3 31.1 9.6 15.4-4.8 25.6-13.4 22.8-23.5-1.2 3.1-4.4 7.7-12.8 9.3zm-59.5-50.7h-.5c4.3 2.1 5.8 6.9 5 10.5-.9 4.4-5.3 4.9-6.2 9.7-.6 3.3.9 6 1.9 7.3 5.4-.8 9.3-7.1 9.8-14.6.5-7.6-4-13-10-12.9zm-8.8-58.4c-14.5-5.3-27.7.5-30.9 12.2-.1.3-.2.7-.2 1 6.4-7.2 16.8-7.3 23.4-3.8 8 4.3 6.5 13 15.2 17.6 6.1 3.2 12.2 1.6 15.2.4 1.5-10.9-8.5-22.2-22.7-27.4zm6.5 30.8c-13.2-4.5-9.3-11.7-14.7-16.1-9.2-7.3-19.7-2.5-23.1-.5-1.5 10.1 6.9 20.4 22.2 23.9 15.8 3.6 28.9 1.2 31.5-9-2.7 2.2-7.8 4.5-15.9 1.7zm190.1-58.1c-7.6 5.9-10.3.9-14.9 2.4-7.7 2.5-8.9 10.4-9.1 13.1 5.3 4.7 14.4 3.8 22.2-3.7 8-7.7 11.7-16.2 6.9-21.6.2 2.4-.5 6.2-5.1 9.8zm-164.6-21.4c2-9.5 10.9-14.7 18.4-15 9.1-.3 12.1 8.1 22 7.6 6.9-.3 11.3-4.7 13.4-7.3-4.1-10.2-18.5-15-33.4-12.4-15.1 2.7-23.7 14.2-20.6 26 0 .4.1.7.2 1.1zM607.3-92.3c-10.4 9.2-14.8 2.3-21.3 4.8-10.9 4.3-11.9 15.9-12 19.8 8.1 6.3 21.1 4.2 31.7-7.4 10.9-11.9 15.4-24.5 7.9-31.8.7 3.4.1 8.9-6.3 14.6zM432.2-49c.8 9.6-6.3 17.2-13.4 19.6-8.6 2.8-13.9-4.3-23.2-1.1-6.5 2.2-9.6 7.6-10.8 10.7 6.8 8.7 22 9.2 35.5 2.5 13.8-6.8 18.8-20.3 12.5-30.8l-.6-.9zm103 29.1c-9.5-6.3-5-11.2-8.4-15.8-5.8-7.7-15.1-6-18.2-5.2-3.3 7.7 1.2 17.7 12.7 23.6 11.8 6.1 22.6 6.9 26.8-.6-2.6 1.1-7.1 1.9-12.9-2zm1.2-25.8c-10.4-7.2-22.1-5.4-27.1 3.3-.1.2-.2.5-.4.7 6.6-4.4 14.8-2.3 19.3 1.8 5.5 5 2.4 11.7 8.5 17.1 4.2 3.8 9.3 3.8 12 3.5 3.5-8.3-2.1-19.4-12.3-26.4zm37.1 8.3c12.3-6.4 14.9 1.4 21.8.4 11.6-1.6 15.4-12.5 16.4-16.3-6.3-8.1-19.5-9.2-32.6-.5-13.5 9-20.8 20-15.3 29 .3-3.4 2.1-8.7 9.7-12.6zm-10.2-13.2c.2-.2.3-.4.4-.5-6.2 2.5-12.6-.5-15.7-4.7-3.7-5.1-.1-10.1-4.2-15.6-2.8-3.8-7.1-4.7-9.4-4.8-4.3 6.3-1.4 16.5 5.9 24 7.5 7.5 17.4 7.9 23 1.6zm48.9-2c.8 9.6-6.3 17.2-13.4 19.6-8.6 2.8-13.9-4.3-23.2-1.1-6.5 2.2-9.6 7.6-10.8 10.7 6.8 8.7 22 9.2 35.5 2.5 13.8-6.8 18.8-20.3 12.5-30.8l-.6-.9zM276.4 3.6c12.3-6.4 14.9 1.4 21.8.4 11.6-1.6 15.4-12.5 16.4-16.3-6.3-8.1-19.5-9.2-32.6-.5-13.5 9-20.8 20-15.3 29 .3-3.4 2.1-8.6 9.7-12.6zm96.2-66.2c3.8 2.3 2.9 6.6 7.1 9 2.9 1.7 5.9 1.1 7.5.5 1-5.3-3.7-11.1-10.6-14-7-2.9-13.7-.4-15.5 5.3-.1.2-.1.3-.1.5 3.3-3.3 8.4-3.1 11.6-1.3zm-71.2 38.7c.1.1.3.2.4.2-2.4-4.1-.9-9 1.7-11.6 3.2-3.1 7.1-1.1 10.5-4.6 2.4-2.4 2.6-5.5 2.5-7.1-4.9-2.4-11.7.7-16.2 6.6-4.6 6.2-3.9 13.3 1.1 16.5zm127-42.4c-1.4-1-3.2-3.1-3-7.3.3-6.9 4.2-6 5.5-9.2 2.2-5.4-1.6-9.7-3-11-5 .7-8.7 6.1-8.2 13.8.6 8 3.5 13.9 8.7 13.7zm-4-91.2c-1.7-6.5 2.2-12.4 6.7-14.9 5.5-3 10 1.2 16-2.1 4.2-2.3 5.6-6.4 6-8.6-5.7-5.1-16.1-3.6-24.5 2.6-8.6 6.3-10.3 16.1-4.7 22.5.1.2.3.3.5.5zM388.2-103c2.8 6.9-2.8 11.6.4 19.1 2.2 5.2 6.8 7.4 9.4 8.2 6.7-6.1 6.3-18.5 0-29.3-6.4-10.9-17.7-14.2-25.9-8.5-.2.2-.4.3-.6.5 7.8-1 14.4 4.3 16.7 10zm8.8 28.3c-2.8 0-7.2-1.3-10.9-7.3-6-9.7.3-12.3-.9-17.9-1.9-9.4-11.1-11.9-14.3-12.5-6.2 5.6-6.4 16.5 1.5 26.7 8 10.6 17.5 16 24.6 11zm-59.1-2.5c4.6 2.7 3.5 7.8 8.5 10.7 3.5 2 7.1 1.3 8.9.7 1.2-6.3-4.4-13.3-12.6-16.7-8.4-3.5-16.3-.5-18.5 6.3-.1.2-.1.4-.1.6 4-4.1 10-3.9 13.8-1.6zm49.1 25c-1.4 1-3.9 2-7.8.5-6.4-2.5-4.3-6-6.9-8.2-4.4-3.8-9.7-1.7-11.4-.8-1 4.9 2.9 10.2 10.4 12.2 7.6 2.1 14.1 1.2 15.7-3.7zm6.5 18.4c12.3-6.4 14.9 1.4 21.8.4 11.6-1.6 15.4-12.5 16.4-16.3-6.3-8.1-19.5-9.2-32.6-.5-13.5 9-20.8 20-15.3 29 .3-3.4 2.1-8.7 9.7-12.6zm-42-12.5c1.6 1.8 3.4 5.1 1.9 10.8-2.4 9.3-7.6 7-10.4 11-4.6 6.7-.8 13.7.7 16 7.1.5 13.8-5.7 15.4-16.5 1.8-11-.5-19.9-7.6-21.3zm3.6-18.6c-1.6 1.2-4.7 2.4-9.3.5-7.6-3-5.2-7.1-8.2-9.8-5.2-4.5-11.5-2-13.6-.9-1.1 5.9 3.5 12.1 12.4 14.6 9.1 2.5 16.8 1.4 18.7-4.4zm-15.7 40.4c2.6-5.7 8.7-5.1 11.4-11.4 1.9-4.4.5-8.5-.4-10.5-7.6-.5-15 7-17.8 17-2.9 10.2 1.6 19.1 9.9 20.7.2 0 .5.1.7.1-5.4-4.1-5.9-11.2-3.8-15.9zm-22.1-21.9c.6 1.6.9 4.3-1.6 7.7-4.1 5.5-6.9 2.6-9.7 4.6-4.8 3.2-4.1 8.9-3.7 10.8 4.5 2.2 10.6-.2 14.5-6.9 4-7 4.8-13.5.5-16.2zm-2.2 34.9c.8 9.6-6.3 17.2-13.4 19.6-8.6 2.8-13.9-4.3-23.2-1.1-6.5 2.2-9.6 7.6-10.8 10.7 6.8 8.7 22 9.2 35.5 2.5C317 13.3 322-.2 315.7-10.6l-.6-.9z"/></g></svg>