<?xml version="1.0" encoding="utf-8"?>
<!-- Generator: Adobe Illustrator 17.1.0, SVG Export Plug-In . SVG Version: 6.00 Build 0)  -->
<!DOCTYPE svg PUBLIC "-//W3C//DTD SVG 1.1//EN" "http://www.w3.org/Graphics/SVG/1.1/DTD/svg11.dtd">
<svg version="1.1" id="Layer_1" xmlns="http://www.w3.org/2000/svg" xmlns:xlink="http://www.w3.org/1999/xlink" x="0px" y="0px"
	 viewBox="0 0 36.1 35.3" enable-background="new 0 0 36.1 35.3" xml:space="preserve">
<g>
	<g>
		<path fill-rule="evenodd" clip-rule="evenodd" fill="#4A2C2A" d="M12.8,17.3c3.8-2.5,8.9-1,13.1-3.8c1.7-1.1,2.8-2.5,3.6-3.8
			c-0.3-0.5-0.7-0.9-1.2-1.3c-4.4-3.6-12-1.9-17.8,3.2c-5.8,5.1-6.5,12.3-2.1,16.5c0.5,0.5,1,0.9,1.6,1.2C7.9,24,9.9,19.2,12.8,17.3
			z M30.1,10.8c-0.6,1.2-1.6,2.6-3.2,4.1c-5.1,4.7-8.7,2.6-11.9,3.9c-4.7,1.9-4.5,7.8-4,11.1c4,1.6,9.5,0.1,14-5
			C29.5,19.8,31.8,14.5,30.1,10.8z"/>
	</g>
</g>
</svg>
