<?xml version="1.0" encoding="utf-8"?>
<!-- Generator: Adobe Illustrator 17.1.0, SVG Export Plug-In . SVG Version: 6.00 Build 0)  -->
<!DOCTYPE svg PUBLIC "-//W3C//DTD SVG 1.1//EN" "http://www.w3.org/Graphics/SVG/1.1/DTD/svg11.dtd">
<svg version="1.1" id="Layer_1" xmlns="http://www.w3.org/2000/svg" xmlns:xlink="http://www.w3.org/1999/xlink" x="0px" y="0px"
	 viewBox="0 0 200 200" enable-background="new 0 0 200 200" xml:space="preserve">
<g>
	<defs>
		<circle id="SVGID_1_" cx="99.9" cy="100.2" r="81.3"/>
	</defs>
	<clipPath id="SVGID_2_">
		<use xlink:href="#SVGID_1_"  overflow="visible"/>
	</clipPath>
	<g clip-path="url(#SVGID_2_)">
		<g>
			<path fill-rule="evenodd" clip-rule="evenodd" fill="#394D09" d="M192.3,270.4c2.2,7.8,10.1,9.3,12.8,9.6
				c4.9-5.1,4.3-14.3-2.9-22.4c-7.4-8.3-15.7-12.3-21.3-7.6c2.4-0.1,6.1,0.6,9.6,5.4C196.1,263.3,191,265.8,192.3,270.4z
				 M211.7,228.7c0.2-0.3,0.4-0.5,0.6-0.8c-8.8,4-18.3,0-23-5.9c-5.6-7.1-0.7-14.5-6.9-22.2c-4.3-5.4-10.5-6.4-13.8-6.5
				c-5.8,9.4-1.1,23.8,9.9,34.3C189.6,238.2,204,238.2,211.7,228.7z M109.2,163.9c-0.1,0.2-0.2,0.4-0.2,0.5
				c4.6-3.3,10.5-2.1,13.9,0.8c4.1,3.4,2.1,8.3,6.6,12c3.1,2.6,6.8,2.5,8.7,2.1c2.2-6.1-2.1-13.8-9.7-18.5
				C120.8,155.9,112.5,157.5,109.2,163.9z M216.6,47.5c11.2,10.6,25.5,10.6,33.2,1.1c0.2-0.3,0.4-0.5,0.6-0.8c-8.8,4-18.3,0-23-5.9
				c-5.6-7.1-0.7-14.5-6.9-22.2c-4.3-5.4-10.5-6.4-13.8-6.5C201,22.7,205.7,37.1,216.6,47.5z M189.1,80.8c0.2,0.1,0.4,0.2,0.5,0.2
				c-3.3-4.6-2.1-10.6,0.8-13.9c3.5-4.1,8.3-2.1,12-6.6c2.6-3.1,2.5-6.8,2.1-8.7c-6.1-2.3-13.9,2.1-18.6,9.7
				C181.1,69.2,182.8,77.5,189.1,80.8z M169.5,191.9c3.3-0.9,8.9-1,15.2,4.8c10.3,9.4,3.9,14.5,7.1,20.6c5.5,10.4,17,10.1,21,9.7
				c5.4-8.7,1.9-21.5-10.8-30.8C189,186.7,176.1,183.6,169.5,191.9z M196.5,177c0.2,0,0.5,0,0.7,0c-5.9-3-7.8-9.9-6.7-14.9
				c1.4-6.1,7.6-6.6,9-13.3c1-4.7-1.1-8.4-2.4-10.3c-7.6,0.9-13.4,9.7-14.3,20.1C181.9,169.1,188.1,176.9,196.5,177z M155.3,248.1
				c-5.4,4.4-3.9,11-3.2,13.2c5.6,2.1,12.6-1.4,16.5-9.8c4-8.6,4.3-16.4-1.2-19.3c0.9,1.8,1.6,5-1,9.3
				C162.1,248.7,158.5,245.5,155.3,248.1z M152.5,141.8c-0.2,0.1-0.5,0.3-0.7,0.4c7.9,0.2,13.5,6.5,14.8,12.5
				c1.6,7.3-4.7,11-2.8,18.9c1.3,5.5,5.5,8.4,7.9,9.7c7.6-4.9,9.3-17.2,4.9-28.8C172.1,142.7,161.5,137.5,152.5,141.8z M166.8,109
				c-12.3,6.4-14.9-1.4-21.8-0.4c-11.6,1.6-15.4,12.5-16.4,16.3c6.3,8.1,19.5,9.2,32.6,0.5c13.5-9,20.8-20,15.3-29
				C176.3,99.8,174.4,105.1,166.8,109z M95,222.7c0.9-3.3,3.6-8.2,11.7-10.8c13.2-4.3,14.4,3.8,21.4,4.1
				c11.7,0.4,17.3-9.8,18.9-13.4c-4.9-9-17.7-12.3-32-5.9C100.1,203.3,91,213,95,222.7z M128.1,124.2c-0.8-9.6,6.3-17.2,13.4-19.6
				c8.6-2.8,13.9,4.3,23.2,1.1c6.5-2.2,9.6-7.6,10.8-10.7c-6.8-8.7-22-9.2-35.5-2.5c-13.8,6.8-18.8,20.3-12.5,30.8
				C127.7,123.6,127.9,123.9,128.1,124.2z M137.7,180.2c-1.8,0.9-5,1.5-9.3-1c-7-4.2-3.9-7.9-6.5-11c-4.4-5.3-11-3.9-13.2-3.2
				c-2.1,5.6,1.4,12.5,9.8,16.4C127.1,185.4,134.9,185.7,137.7,180.2z M170.4,184.1c-2.8-0.5-6.9-2.5-9.5-9
				c-4.3-10.6,2.3-12.1,2.1-17.8c-0.3-9.6-9-13.6-12-14.7c-7.1,4.5-9.1,15.2-3,26.6C154.2,181,162.7,187.9,170.4,184.1z
				 M130.3,232.7c14.7-4.4,21.9-16.9,17.5-28.3c-0.1-0.3-0.3-0.6-0.4-1c-0.9,9.6-9.1,15.9-16.5,17c-9,1.4-13-6.6-22.7-5
				c-6.8,1.1-10.7,6-12.5,8.8C101,233.9,115.8,237,130.3,232.7z M260.8,160c5.9-2,9.6,2.9,16.1,0.6c4.5-1.6,6.6-5.4,7.4-7.5
				c-4.8-6-15.3-6.2-24.6-1.5c-9.5,4.8-12.9,14.2-8.4,21.4c0.1,0.2,0.3,0.4,0.4,0.6C251.1,166.9,255.9,161.6,260.8,160z M229,244.8
				c8.4-3.5,14.2,3.3,23.3-0.6c6.3-2.7,9-8.3,10-11.5c-7.4-8.1-22.6-7.6-35.6,0.1c-13.2,7.8-17.2,21.7-10.2,31.6
				c0.2,0.3,0.4,0.6,0.6,0.8C215.6,255.7,222,247.6,229,244.8z M214.1,185c-0.1,0.3-0.3,0.6-0.4,1c7.6-6,17.8-4.4,23.7,0.2
				c7.2,5.5,4.2,13.9,12.1,19.9c5.5,4.2,11.7,3.6,15,3c3.4-10.5-4.7-23.4-17.8-30.9C233.2,170.5,219.2,173.9,214.1,185z
				 M247.9,209.5c-12.2-6.6-7.2-13.1-11.8-18.3c-7.8-8.8-19-5.8-22.7-4.4c-3.2,9.7,3.3,21.3,17.9,27.3c14.9,6.1,28.3,6.1,32.6-3.6
				C260.8,212.2,255.4,213.6,247.9,209.5z M111.8,141.6c-8.5,4.5-10.3-0.8-15.1-0.2c-8,1.2-10.6,8.8-11.2,11.4
				c4.4,5.5,13.6,6.2,22.5,0.1c9.3-6.3,14.3-14,10.4-20.2C118.3,135.2,117,138.8,111.8,141.6z M254.5,84.4c0.2,0.3,0.4,0.6,0.6,0.8
				c-1.5-9.6,5-17.6,11.9-20.5c8.4-3.5,14.2,3.3,23.3-0.6c6.3-2.7,9-8.3,10-11.5c-7.4-8.1-22.6-7.6-35.6,0.1
				C251.5,60.6,247.5,74.4,254.5,84.4z M194.1,161.3c-3.3,7.4,1.8,13.6,3.7,15.6c7-0.8,12.4-8.2,12-19.1
				c-0.4-11.2-4.3-19.5-11.6-19.5c1.9,1.4,4.3,4.4,3.9,10.3C201.6,158.2,196.1,156.9,194.1,161.3z M232,154.9
				c-5.3,2.4-5.5,8.1-5.5,10c4.1,2.9,10.5,1.6,15.4-4.4c5.1-6.1,7.1-12.4,3.2-15.8c0.3,1.7,0.2,4.4-2.9,7.3
				C237.4,156.8,235.1,153.5,232,154.9z M222.9,16.7c10.3,9.4,3.9,14.5,7.1,20.6c5.5,10.4,17,10.1,21,9.7
				c5.4-8.7,1.9-21.5-10.8-30.8c-13-9.6-26-12.7-32.5-4.4C211,11,216.6,10.9,222.9,16.7z M227.4,148c-5.6,5.2-6.1,12.3-1.6,16.3
				c0.1,0.1,0.3,0.2,0.4,0.3c-1.7-4.4,0.6-9,3.6-11.1c3.7-2.6,7.2,0.1,11.1-2.7c2.8-2,3.5-5,3.6-6.6
				C240.1,141,232.9,142.9,227.4,148z M221.9,130.6c-2.7,0.7-7.3,0.7-12.4-4.1c-8.4-7.8-3-11.9-5.6-17c-4.4-8.6-13.9-8.5-17.1-8.2
				c-4.5,7.1-1.8,17.6,8.5,25.4C205.9,134.7,216.4,137.4,221.9,130.6z M250.2,115.7c13.2-4.3,14.4,3.8,21.4,4.1
				c11.7,0.4,17.3-9.8,18.9-13.4c-4.9-9-17.7-12.3-32-5.9c-14.8,6.6-23.9,16.3-20,26C239.3,123.2,242,118.3,250.2,115.7z
				 M230.5,90.4c2.2,7.8,10.1,9.3,12.8,9.6c4.9-5.1,4.3-14.3-2.9-22.4c-7.4-8.3-15.7-12.3-21.3-7.6c2.4-0.1,6.1,0.6,9.6,5.4
				C234.2,83.2,229.2,85.8,230.5,90.4z M193.4,68.1c-5.4,4.4-3.9,11-3.2,13.2c5.6,2.1,12.6-1.4,16.5-9.8c4-8.6,4.3-16.4-1.2-19.3
				c0.9,1.8,1.6,5-1,9.3C200.3,68.6,196.6,65.5,193.4,68.1z M187.7,100c-0.2,0.2-0.3,0.4-0.5,0.7c7.2-3.2,15,0.2,18.7,5.1
				c4.5,5.9,0.4,11.9,5.5,18.3c3.5,4.4,8.5,5.3,11.3,5.4c4.8-7.7,1.1-19.6-7.8-28.2C205.9,92.5,194,92.3,187.7,100z M220,95.4
				c6,8.8,15.8,10.9,22.3,5.5c0.2-0.1,0.3-0.3,0.5-0.5c-6.5,1.4-12.4-2.6-14.7-7.3c-2.8-5.6,1.6-9.9-1.5-16
				c-2.2-4.2-6.2-5.8-8.4-6.3C212.9,76.4,214,86.8,220,95.4z M151,260.9c0.2,0.1,0.4,0.2,0.5,0.2c-3.3-4.6-2.1-10.6,0.8-13.9
				c3.5-4.1,8.3-2.1,12-6.6c2.6-3.1,2.5-6.8,2.1-8.7c-6.1-2.3-13.9,2.1-18.6,9.7C143,249.2,144.6,257.5,151,260.9z M171.3,306.6
				c-8.4-7.8-3-11.9-5.6-17c-4.4-8.6-13.9-8.5-17.1-8.2c-4.5,7.1-1.8,17.6,8.5,25.4c10.6,8,21.2,10.7,26.6,3.9
				C181,311.4,176.4,311.4,171.3,306.6z M129,275.9c-13.9,0.4-12.8-7.7-19.4-9.9c-11.1-3.7-19.3,4.5-21.9,7.5
				c2.1,10,13.5,16.8,29.1,14.7c16-2.2,27.5-8.9,26.4-19.4C141.5,271.7,137.6,275.6,129,275.9z M149.5,280.1
				c-0.2,0.2-0.3,0.4-0.5,0.7c7.2-3.2,15,0.2,18.7,5.1c4.5,5.9,0.4,11.9,5.5,18.3c3.5,4.4,8.5,5.3,11.3,5.4
				c4.8-7.7,1.1-19.6-7.8-28.2C167.7,272.5,155.9,272.3,149.5,280.1z M74.6,260.6c-0.9,9.6-9.1,15.9-16.5,17c-9,1.4-13-6.6-22.7-5
				c-6.8,1.1-10.7,6-12.5,8.8c5.3,9.7,20.1,12.8,34.6,8.4c14.7-4.4,21.9-16.9,17.5-28.3C74.9,261.3,74.8,260.9,74.6,260.6z
				 M78.9,215.9c-0.2,0-0.3,0-0.5,0c3.9,2.7,4.5,7.8,3.2,11.2c-1.6,4.2-6,3.9-7.7,8.5c-1.2,3.2-0.1,6,0.7,7.5
				c5.4,0.1,10.4-5.5,12.1-12.7C88.4,222.9,84.8,216.8,78.9,215.9z M108.2,260.8c9,1.2,10.6,10,20.4,11.2c6.8,0.8,12-2.7,14.4-4.9
				c-2.3-10.8-15.7-17.9-30.9-17.8c-15.4,0.1-25.8,10.1-24.7,22.2c0,0.3,0.1,0.7,0.1,1C91.1,263.5,100.8,259.8,108.2,260.8z
				 M254.5,247.3c-11.8,7.3-14.9-0.3-21.8,1.2c-11.5,2.4-14.4,13.6-15.1,17.5c6.9,7.6,20.1,7.7,32.5-2c12.8-9.9,19.3-21.5,13.1-30.1
				C263.3,237.4,261.8,242.8,254.5,247.3z M290.9,107.3c-0.9,9.6-9.1,15.9-16.5,17c-9,1.4-13-6.6-22.7-5c-6.8,1.1-10.7,6-12.5,8.8
				c5.3,9.7,20.1,12.8,34.6,8.4c14.7-4.4,21.9-16.9,17.5-28.3C291.1,107.9,291,107.6,290.9,107.3z M278.4,162.8
				c-8.5,4.5-10.3-0.8-15.1-0.2c-8,1.2-10.6,8.8-11.2,11.4c4.4,5.5,13.6,6.2,22.5,0.1c9.3-6.3,14.3-14,10.4-20.2
				C284.8,156.4,283.6,160.1,278.4,162.8z M301.5,53.9c0,3.5-1.5,8.8-8.8,13.3c-11.8,7.3-14.9-0.3-21.8,1.2
				c-11.5,2.4-14.4,13.6-15.1,17.5c6.9,7.6,20.1,7.7,32.5-2C301.1,74.1,307.6,62.5,301.5,53.9z M212,295.7
				c13.2-4.3,14.4,3.8,21.4,4.1c11.7,0.4,17.3-9.8,18.9-13.4c-4.9-9-17.7-12.3-32-5.9c-14.8,6.6-23.9,16.3-20,26
				C201.2,303.2,203.9,298.4,212,295.7z M204.6,280.5c-6.5,1.4-12.4-2.6-14.7-7.3c-2.8-5.6,1.6-9.9-1.5-16c-2.2-4.2-6.2-5.8-8.4-6.3
				c-5.3,5.5-4.1,16,1.8,24.6c6,8.8,15.8,10.9,22.3,5.5C204.3,280.8,204.4,280.6,204.6,280.5z M252.7,287.3
				c-0.9,9.6-9.1,15.9-16.5,17c-9,1.4-13-6.6-22.7-5c-6.8,1.1-10.7,6-12.5,8.8c5.3,9.7,20.1,12.8,34.6,8.4
				c14.7-4.4,21.9-16.9,17.5-28.3C253,287.9,252.9,287.6,252.7,287.3z M33.9,269.1c13.2-4.3,14.4,3.8,21.4,4.1
				c11.7,0.4,17.3-9.8,18.9-13.4c-4.9-9-17.7-12.3-32-5.9c-14.8,6.6-23.9,16.3-20,26C23.1,276.5,25.8,271.7,33.9,269.1z
				 M-41.9,251.2c-4.9,4.8-7.2,1.4-10.3,2.9c-5.3,2.4-5.5,8.1-5.5,10c4.1,2.9,10.5,1.6,15.4-4.4c5.1-6.1,7.1-12.4,3.2-15.8
				C-38.8,245.5-38.9,248.2-41.9,251.2z M44.2,229.3c-2.8-0.5-6.9-2.5-9.5-9c-4.3-10.6,2.3-12.1,2.1-17.8c-0.3-9.6-9-13.6-12-14.7
				c-7.1,4.5-9.1,15.2-3,26.6C28,226.2,36.4,233.1,44.2,229.3z M-58.1,263.7c-1.7-4.4,0.6-9,3.6-11.1c3.7-2.6,7.2,0.1,11.1-2.7
				c2.8-2,3.5-5,3.6-6.6c-4.4-3.1-11.7-1.3-17.1,3.8c-5.6,5.2-6.1,12.3-1.6,16.3C-58.4,263.5-58.3,263.6-58.1,263.7z M30.6,249.8
				c-1.5,0.7-4.2,1.3-7.8-0.9c-5.9-3.5-3.3-6.6-5.4-9.3c-3.7-4.5-9.2-3.3-11.1-2.7c-1.8,4.7,1.2,10.5,8.2,13.8
				C21.7,254.2,28.2,254.4,30.6,249.8z M18.1,237.2c3.4,2.9,1.8,6.9,5.5,10.1c2.6,2.2,5.7,2.1,7.3,1.8c1.9-5.1-1.8-11.6-8.1-15.6
				c-6.4-4-13.4-2.7-16.2,2.6c-0.1,0.1-0.1,0.3-0.2,0.4C10.3,233.8,15.3,234.8,18.1,237.2z M70.8,164.8c7.2,5.5,4.2,13.9,12.1,19.9
				c5.5,4.2,11.7,3.6,15,3c3.4-10.5-4.7-23.4-17.8-30.9c-13.4-7.6-27.4-4.2-32.5,6.9c-0.1,0.3-0.3,0.6-0.4,1
				C54.6,158.6,64.8,160.2,70.8,164.8z M64.6,192.8c14.9,6.1,28.3,6.1,32.6-3.6c-3,1.7-8.4,3.1-15.9-1c-12.2-6.6-7.2-13.1-11.8-18.3
				c-7.8-8.8-19-5.8-22.7-4.4C43.6,175.3,50.1,186.9,64.6,192.8z M79,227.1c3.1-4.9,0.1-9.8-1.1-11.4c-5-0.1-9.6,4.5-10.4,12.3
				c-0.8,7.9,1.1,14.2,6.2,14.9c-1.2-1.2-2.6-3.5-1.7-7.7C73.4,228.6,77.2,230,79,227.1z M40.3,200c1.6,7.3-4.7,11-2.8,18.9
				c1.3,5.5,5.5,8.4,7.9,9.7c7.6-4.9,9.3-17.2,4.9-28.8c-4.5-11.8-15.1-17-24.1-12.7c-0.2,0.1-0.5,0.3-0.7,0.4
				C33.4,187.7,39,194,40.3,200z M-5.4,249.7c1.3,2,2.5,5.6,0.1,11c-4,8.8-8.7,5.6-12.1,9.1c-5.7,5.8-3.1,13.4-2,15.9
				c6.9,1.7,14.5-3.3,18-13.7C2.1,261.4,1.4,252.3-5.4,249.7z M-8,230.9c-7-4.2-3.9-7.9-6.5-11c-4.4-5.3-11-3.9-13.2-3.2
				c-2.1,5.6,1.4,12.5,9.8,16.4c8.6,4,16.4,4.3,19.2-1.2C-0.5,232.9-3.7,233.5-8,230.9z M-87.8,286.3c13.2-4.3,14.4,3.8,21.4,4.1
				c11.7,0.4,17.3-9.8,18.9-13.4c-4.9-9-17.7-12.3-32-5.9c-14.8,6.6-23.9,16.3-20,26C-98.6,293.8-95.9,289-87.8,286.3z M-8,212.5
				c-7.7-4.8-16-3.2-19.3,3.1c-0.1,0.2-0.2,0.4-0.2,0.5c4.6-3.3,10.5-2.1,13.9,0.8c4.1,3.4,2.1,8.3,6.6,12c3.1,2.6,6.8,2.5,8.7,2.1
				C3.9,225-0.4,217.2-8,212.5z M-47.1,277.9c-0.9,9.6-9.1,15.9-16.5,17c-9,1.4-13-6.6-22.7-5c-6.8,1.1-10.7,6-12.5,8.8
				c5.3,9.7,20.1,12.8,34.6,8.4c14.7-4.4,21.9-16.9,17.5-28.3C-46.8,278.5-46.9,278.2-47.1,277.9z M85.1,152.3
				c-0.6-6.6,4.3-11.9,9.2-13.6c5.9-2,9.6,2.9,16.1,0.6c4.5-1.6,6.6-5.4,7.4-7.5c-4.8-6-15.3-6.2-24.6-1.5
				c-9.5,4.8-12.9,14.2-8.4,21.4C84.8,151.9,85,152.1,85.1,152.3z M-21,269.1c3.5-5.2,9.4-3.6,13.1-9.3c2.6-4,2-8.2,1.3-10.5
				c-7.4-1.8-15.9,4.3-20.4,13.8c-4.6,9.6-1.6,19.1,6.3,22.1c0.2,0.1,0.4,0.1,0.7,0.2C-24.5,280.6-23.9,273.5-21,269.1z"/>
		</g>
		<g>
			<path fill-rule="evenodd" clip-rule="evenodd" fill="#394D09" d="M-5.4,123.8c-6-8.8-15.8-10.9-22.3-5.5
				c-0.2,0.1-0.3,0.3-0.5,0.5c6.5-1.4,12.4,2.6,14.7,7.3c2.8,5.6-1.6,9.9,1.5,16c2.2,4.2,6.2,5.8,8.4,6.3
				C1.6,142.9,0.5,132.4-5.4,123.8z M26.9,119.2c0.2-0.2,0.3-0.4,0.5-0.7c-7.2,3.2-15-0.2-18.7-5.1c-4.5-5.9-0.4-11.9-5.5-18.3
				c-3.5-4.4-8.5-5.3-11.3-5.4c-4.8,7.7-1.1,19.6,7.8,28.2C8.7,126.7,20.5,126.9,26.9,119.2z M19.3,92.5c-10.6-8-21.2-10.7-26.6-3.9
				c2.7-0.7,7.3-0.7,12.4,4.1c8.4,7.8,3,11.9,5.6,17c4.4,8.6,13.9,8.5,17.1,8.2C32.4,110.8,29.6,100.2,19.3,92.5z M20.4,57.9
				c3.3-7.4-1.8-13.6-3.7-15.6c-7,0.8-12.4,8.2-12,19.1C5.1,72.6,9,80.9,16.2,80.9c-1.9-1.4-4.3-4.4-3.9-10.3
				C12.9,61,18.5,62.3,20.4,57.9z M-12.8,71.2c5.6-5.2,6.1-12.3,1.6-16.3c-0.1-0.1-0.3-0.2-0.4-0.3c1.7,4.4-0.6,9-3.6,11.1
				c-3.7,2.6-7.2-0.1-11.1,2.7c-2.8,2-3.5,5-3.6,6.6C-25.6,78.2-18.3,76.3-12.8,71.2z M-35.6,103.5c-13.2,4.3-14.4-3.8-21.4-4.1
				c-11.7-0.4-17.3,9.8-18.9,13.4c4.9,9,17.7,12.3,32,5.9c14.8-6.6,23.9-16.3,20-26C-24.8,96-27.5,100.9-35.6,103.5z M-4.5,149.2
				c-2.4,0.1-6.1-0.6-9.6-5.4c-5.6-7.8-0.5-10.3-1.9-15c-2.2-7.8-10.1-9.3-12.8-9.6c-4.9,5.1-4.3,14.3,2.9,22.4
				C-18.4,149.9-10.1,153.8-4.5,149.2z M67.2,15.8c0.9-9.6,9.1-15.9,16.5-17c9-1.4,13,6.6,22.7,5c6.8-1.1,10.7-6,12.5-8.8
				c-5.3-9.7-20.1-12.8-34.6-8.4C69.5-9.1,62.3,3.4,66.8,14.8C66.9,15.1,67,15.4,67.2,15.8z M-33.3,9.7c12.2,6.6,7.2,13.1,11.8,18.3
				c7.8,8.8,19,5.8,22.7,4.4c3.2-9.7-3.3-21.3-17.9-27.3C-31.6-1-44.9-0.9-49.2,8.7C-46.2,7-40.8,5.6-33.3,9.7z M59.3-28.9
				c5.4-4.4,3.9-11,3.2-13.2c-5.6-2.1-12.6,1.4-16.5,9.8c-4,8.6-4.3,16.4,1.2,19.3c-0.9-1.8-1.6-5,1-9.3
				C52.4-29.4,56.1-26.3,59.3-28.9z M85.6-56.6c13.9-0.4,12.8,7.7,19.4,9.9c11.1,3.7,19.3-4.5,21.9-7.5c-2.1-10-13.5-16.8-29.1-14.7
				c-16,2.2-27.5,8.9-26.4,19.4C73-52.5,77-56.4,85.6-56.6z M2.9-9.5C2.7-9.2,2.5-8.9,2.3-8.6c8.8-4,18.3,0,23,5.9
				c5.6,7.1,0.7,14.5,6.9,22.2c4.3,5.4,10.5,6.4,13.8,6.5c5.8-9.4,1.1-23.8-9.9-34.3C24.9-19,10.5-19,2.9-9.5z M63.6-41.7
				c-0.2-0.1-0.4-0.2-0.5-0.2c3.3,4.6,2.1,10.6-0.8,13.9c-3.5,4.1-8.3,2.1-12,6.6c-2.6,3.1-2.5,6.8-2.1,8.7
				c6.1,2.3,13.9-2.1,18.6-9.7C71.6-30,69.9-38.3,63.6-41.7z M45,27.3c-3.3,0.9-8.9,1-15.2-4.8C19.5,13.1,25.9,8,22.7,1.9
				c-5.5-10.4-17-10.1-21-9.7c-5.4,8.7-1.9,21.5,10.8,30.8C25.6,32.5,38.5,35.6,45,27.3z M22.2-51.2C20-59,12.1-60.5,9.4-60.8
				c-4.9,5.1-4.3,14.3,2.9,22.4c7.4,8.3,15.7,12.3,21.3,7.6c-2.4,0.1-6.1-0.6-9.6-5.4C18.5-44.1,23.5-46.6,22.2-51.2z M18,42.2
				c-0.2,0-0.5,0-0.7,0c5.9,3,7.8,9.9,6.7,14.9c-1.4,6.1-7.6,6.6-9,13.3c-1,4.7,1.1,8.4,2.4,10.3c7.6-0.9,13.4-9.7,14.3-20.1
				C32.6,50.1,26.5,42.3,18,42.2z M139.9-41.4c0.9-9.6,9.1-15.9,16.5-17c9-1.4,13,6.6,22.7,5c6.8-1.1,10.7-6,12.5-8.8
				c-5.3-9.7-20.1-12.8-34.6-8.4c-14.7,4.4-21.9,16.9-17.5,28.3C139.6-42,139.8-41.7,139.9-41.4z M135.6-7.9
				c-3.1,4.9-0.1,9.8,1.1,11.4c5,0.1,9.6-4.5,10.4-12.3c0.8-7.9-1.1-14.2-6.2-14.9c1.2,1.2,2.6,3.5,1.7,7.7
				C141.1-9.4,137.4-10.8,135.6-7.9z M135.6,3.4c0.2,0,0.3,0,0.5,0c-3.9-2.7-4.5-7.8-3.2-11.2c1.6-4.2,6-3.9,7.7-8.5
				c1.2-3.2,0.1-6-0.7-7.5c-5.4-0.1-10.4,5.5-12.1,12.7C126.2-3.7,129.7,2.5,135.6,3.4z M-14.4-25.6c-8.4,3.5-14.2-3.3-23.3,0.6
				c-6.3,2.7-9,8.3-10,11.5c7.4,8.1,22.6,7.6,35.6-0.1C1.2-21.4,5.2-35.2-1.8-45.2C-2-45.5-2.3-45.8-2.5-46
				C-1-36.5-7.5-28.4-14.4-25.6z M261.6-58.7c0.9-9.6,9.1-15.9,16.5-17c9-1.4,13,6.6,22.7,5c6.8-1.1,10.7-6,12.5-8.8
				c-5.3-9.7-20.1-12.8-34.6-8.4C264-83.5,256.8-71,261.2-59.7C261.4-59.3,261.5-59,261.6-58.7z M219.9-30.5c-1.3-2-2.5-5.6-0.1-11
				c4-8.8,8.7-5.6,12.1-9.1c5.7-5.8,3.1-13.4,2-15.9c-6.9-1.7-14.5,3.3-18,13.7C212.4-42.2,213.1-33.1,219.9-30.5z M180.6-49.8
				c-13.2,4.3-14.4-3.8-21.4-4.1c-11.7-0.4-17.3,9.8-18.9,13.4c4.9,9,17.7,12.3,32,5.9c14.8-6.6,23.9-16.3,20-26
				C191.5-57.3,188.8-52.5,180.6-49.8z M106.4-41.6c-9-1.2-10.6-10-20.4-11.2c-6.8-0.8-12,2.7-14.4,4.9
				c2.3,10.8,15.7,17.9,30.9,17.8c15.4-0.1,25.8-10.1,24.7-22.2c0-0.3-0.1-0.7-0.1-1C123.4-44.3,113.8-40.6,106.4-41.6z M96,37.9
				c-8.6-4-16.4-4.3-19.2,1.2c1.8-0.9,5-1.5,9.3,1c7,4.2,3.9,7.9,6.5,11c4.4,5.3,11,3.9,13.2,3.2C107.9,48.7,104.4,41.7,96,37.9z
				 M-46.3,59.2c-5.9,2-9.6-2.9-16.1-0.6c-4.5,1.6-6.6,5.4-7.4,7.5c4.8,6,15.3,6.2,24.6,1.5c9.5-4.8,12.9-14.2,8.4-21.4
				c-0.1-0.2-0.3-0.4-0.4-0.6C-36.6,52.3-41.4,57.6-46.3,59.2z M0.5,34.3c0.1-0.3,0.3-0.6,0.4-1c-7.6,6-17.8,4.4-23.7-0.2
				C-30,27.6-27,19.2-34.9,13.2c-5.5-4.2-11.7-3.6-15-3c-3.4,10.5,4.7,23.4,17.8,30.9C-18.6,48.8-4.6,45.3,0.5,34.3z M-17.4,64.3
				c5.3-2.4,5.5-8.1,5.5-10c-4.1-2.9-10.5-1.6-15.4,4.4c-5.1,6.1-7.1,12.4-3.2,15.8c-0.3-1.7-0.2-4.4,2.9-7.3
				C-22.8,62.4-20.6,65.7-17.4,64.3z M91.7,54c-4.1-3.4-2.1-8.3-6.6-12c-3.1-2.6-6.8-2.5-8.7-2.1c-2.2,6.1,2.1,13.8,9.7,18.5
				c7.7,4.8,16,3.2,19.3-3.1c0.1-0.2,0.2-0.4,0.2-0.5C101,58.1,95.1,56.9,91.7,54z M119.6-3.5c-0.9,3.3-3.6,8.2-11.7,10.8
				c-13.2,4.3-14.4-3.8-21.4-4.1C74.7,2.8,69.2,13,67.6,16.6c4.9,9,17.7,12.3,32,5.9C114.4,15.9,123.6,6.3,119.6-3.5z M63.5,76.6
				c7.1-4.5,9.1-15.2,3-26.6c-6.2-11.7-14.7-18.7-22.4-14.8c2.8,0.5,6.9,2.5,9.5,9c4.3,10.6-2.3,12.1-2.1,17.8
				C51.8,71.5,60.5,75.5,63.5,76.6z M16.3,155.9c4.2-7,7.9-3.9,11.1-6.5c5.4-4.4,3.9-11,3.2-13.2c-5.6-2.1-12.6,1.4-16.5,9.8
				c-4,8.6-4.3,16.4,1.2,19.3C14.4,163.4,13.7,160.2,16.3,155.9z M149.9,26.4c-14.9-6.1-28.3-6.1-32.6,3.6c3-1.7,8.4-3.1,15.9,1
				c12.2,6.6,7.2,13.1,11.8,18.3c7.8,8.8,19,5.8,22.7,4.4C171,43.9,164.5,32.3,149.9,26.4z M174.2,19.2c-1.6-7.3,4.7-11,2.8-18.9
				c-1.3-5.5-5.5-8.4-7.9-9.7c-7.6,4.9-9.3,17.2-4.9,28.8c4.5,11.8,15.1,17,24.1,12.7c0.2-0.1,0.5-0.3,0.7-0.4
				C181.2,31.6,175.6,25.2,174.2,19.2z M94.8,105.1c-3.5,9-13.2,12.7-20.6,11.7c-9-1.2-10.6-10-20.4-11.2c-6.8-0.8-12,2.7-14.4,4.9
				c2.3,10.8,15.7,17.9,30.9,17.8c15.4-0.1,25.8-10.1,24.7-22.2C94.9,105.8,94.9,105.4,94.8,105.1z M170.4-10.1
				c2.8,0.5,6.9,2.5,9.5,9c4.3,10.6-2.3,12.1-2.1,17.8c0.3,9.6,9,13.6,12,14.7c7.1-4.5,9.1-15.2,3-26.6
				C186.6-7,178.1-13.9,170.4-10.1z M102.8,77.6c8.5-4.5,10.3,0.8,15.1,0.2c8-1.2,10.6-8.8,11.2-11.4c-4.4-5.5-13.6-6.2-22.5-0.1
				c-9.3,6.3-14.3,14-10.4,20.2C96.3,84,97.5,80.4,102.8,77.6z M129.4,66.9c0.6,6.6-4.3,11.9-9.2,13.6c-5.9,2-9.6-2.9-16.1-0.6
				c-4.5,1.6-6.6,5.4-7.4,7.5c4.8,6,15.3,6.2,24.6,1.5c9.5-4.8,12.9-14.2,8.4-21.4C129.7,67.3,129.6,67.1,129.4,66.9z M143.8,54.4
				c-7.2-5.5-4.2-13.9-12.1-19.9c-5.5-4.2-11.7-3.6-15-3c-3.4,10.5,4.7,23.4,17.8,30.9c13.4,7.6,27.4,4.2,32.5-6.9
				c0.1-0.3,0.3-0.6,0.4-1C159.9,60.6,149.7,59,143.8,54.4z M196.4-18c-3.4-2.9-1.8-6.9-5.5-10.1c-2.6-2.2-5.7-2.1-7.3-1.8
				c-1.9,5.1,1.8,11.6,8.1,15.6c6.4,4,13.4,2.7,16.2-2.6c0.1-0.1,0.1-0.3,0.2-0.4C204.2-14.6,199.3-15.6,196.4-18z M256.5-32
				c4.9-4.8,7.2-1.4,10.3-2.9c5.3-2.4,5.5-8.1,5.5-10c-4.1-2.9-10.5-1.6-15.4,4.4c-5.1,6.1-7.1,12.4-3.2,15.8
				C253.3-26.3,253.5-29,256.5-32z M272.7-44.5c1.7,4.4-0.6,9-3.6,11.1c-3.7,2.6-7.2-0.1-11.1,2.7c-2.8,2-3.5,5-3.6,6.6
				c4.4,3.1,11.7,1.3,17.1-3.8c5.6-5.2,6.1-12.3,1.6-16.3C272.9-44.3,272.8-44.4,272.7-44.5z M314.1-78c-0.9,3.3-3.6,8.2-11.7,10.8
				c-13.2,4.3-14.4-3.8-21.4-4.1c-11.7-0.4-17.3,9.8-18.9,13.4c4.9,9,17.7,12.3,32,5.9C308.9-58.5,318-68.2,314.1-78z M235.2-66.1
				c-0.2-0.1-0.4-0.1-0.7-0.2c4.5,4.9,3.9,12,1,16.3c-3.5,5.2-9.4,3.6-13.1,9.3c-2.6,4-2,8.2-1.3,10.5c7.4,1.8,15.9-4.3,20.4-13.8
				C246.1-53.6,243.1-63.1,235.2-66.1z M228.1,2.3c-4.1-3.4-2.1-8.3-6.6-12c-3.1-2.6-6.8-2.5-8.7-2.1C210.6-5.8,215,2,222.5,6.7
				c7.7,4.8,16,3.2,19.3-3.1c0.1-0.2,0.2-0.4,0.2-0.5C237.4,6.3,231.5,5.1,228.1,2.3z M232.5-13.9c-8.6-4-16.4-4.3-19.2,1.2
				c1.8-0.9,5-1.5,9.3,1c7,4.2,3.9,7.9,6.5,11c4.4,5.3,11,3.9,13.2,3.2C244.4-3.1,240.9-10,232.5-13.9z M200.1-31.6
				c-7.2-3.4-13.8-3.6-16.1,1c1.5-0.7,4.2-1.3,7.8,0.9c5.9,3.5,3.3,6.6,5.4,9.3c3.7,4.5,9.2,3.3,11.1,2.7
				C210.1-22.5,207.1-28.3,200.1-31.6z M-40-28.1c11.8-7.3,14.9,0.3,21.8-1.2C-6.7-31.7-3.8-42.9-3.1-46.8c-6.9-7.6-20.1-7.7-32.5,2
				c-12.8,9.9-19.3,21.5-13.1,30.1C-48.7-18.2-47.2-23.6-40-28.1z M-38.2-68.1c0.9-9.6,9.1-15.9,16.5-17c9-1.4,13,6.6,22.7,5
				c6.8-1.1,10.7-6,12.5-8.8c-5.3-9.7-20.1-12.8-34.6-8.4C-35.8-92.9-43-80.4-38.6-69C-38.4-68.7-38.3-68.4-38.2-68.1z M43.3-87.4
				c8.4,7.8,3,11.9,5.6,17c4.4,8.6,13.9,8.5,17.1,8.2c4.5-7.1,1.8-17.6-8.5-25.4c-10.6-8-21.2-10.7-26.6-3.9
				C33.6-92.1,38.1-92.1,43.3-87.4z M-76.3,112c0.9-9.6,9.1-15.9,16.5-17c9-1.4,13,6.6,22.7,5c6.8-1.1,10.7-6,12.5-8.8
				c-5.3-9.7-20.1-12.8-34.6-8.4C-74,87.2-81.2,99.6-76.7,111C-76.6,111.3-76.4,111.6-76.3,112z M-63.8,56.4
				c8.5-4.5,10.3,0.8,15.1,0.2c8-1.2,10.6-8.8,11.2-11.4c-4.4-5.5-13.6-6.2-22.5-0.1c-9.3,6.3-14.3,14-10.4,20.2
				C-70.3,62.8-69,59.2-63.8,56.4z M65-60.8c0.2-0.2,0.3-0.4,0.5-0.7c-7.2,3.2-15-0.2-18.7-5.1c-4.5-5.9-0.4-11.9-5.5-18.3
				c-3.5-4.4-8.5-5.3-11.3-5.4c-4.8,7.7-1.1,19.6,7.8,28.2C46.9-53.3,58.7-53.1,65-60.8z M9.9-61.3c6.5-1.4,12.4,2.6,14.7,7.3
				c2.8,5.6-1.6,9.9,1.5,16c2.2,4.2,6.2,5.8,8.4,6.3c5.3-5.5,4.1-16-1.8-24.6c-6-8.8-15.8-10.9-22.3-5.5
				C10.3-61.6,10.1-61.4,9.9-61.3z M2.5-76.5c-13.2,4.3-14.4-3.8-21.4-4.1c-11.7-0.4-17.3,9.8-18.9,13.4c4.9,9,17.7,12.3,32,5.9
				c14.8-6.6,23.9-16.3,20-26C13.4-84,10.7-79.1,2.5-76.5z M62.1,77.4c0.2-0.1,0.5-0.3,0.7-0.4c-7.9-0.2-13.5-6.5-14.8-12.5
				c-1.6-7.3,4.7-11,2.8-18.9c-1.3-5.5-5.5-8.4-7.9-9.7c-7.6,4.9-9.3,17.2-4.9,28.8C42.4,76.5,53.1,81.7,62.1,77.4z M31.7,136.6
				c-0.2-0.1-0.4-0.2-0.5-0.2c3.3,4.6,2.1,10.6-0.8,13.9c-3.5,4.1-8.3,2.1-12,6.6c-2.6,3.1-2.5,6.8-2.1,8.7
				c6.1,2.3,13.9-2.1,18.6-9.7C39.7,148.3,38,140,31.7,136.6z M53.4,101.7c13.9-0.4,12.8,7.7,19.4,9.9c11.1,3.7,19.3-4.5,21.9-7.5
				c-2.1-10-13.5-16.8-29.1-14.7c-16,2.2-27.5,8.9-26.4,19.4C40.9,105.9,44.8,102,53.4,101.7z M-2.1,171.7
				c-11.2-10.6-25.5-10.6-33.2-1.1c-0.2,0.3-0.4,0.5-0.6,0.8c8.8-4,18.3,0,23,5.9c5.6,7.1,0.7,14.5,6.9,22.2
				c4.3,5.4,10.5,6.4,13.8,6.5C13.6,196.5,8.9,182.1-2.1,171.7z M-40,134.8c-0.2-0.3-0.4-0.6-0.6-0.8c1.5,9.6-5,17.6-11.9,20.5
				c-8.4,3.5-14.2-3.3-23.3,0.6c-6.3,2.7-9,8.3-10,11.5c7.4,8.1,22.6,7.6,35.6-0.1C-36.9,158.6-32.9,144.8-40,134.8z M-78.1,151.9
				c11.8-7.3,14.9,0.3,21.8-1.2c11.5-2.4,14.4-13.6,15.1-17.5c-6.9-7.6-20.1-7.7-32.5,2c-12.8,9.9-19.3,21.5-13.1,30.1
				C-86.8,161.8-85.4,156.5-78.1,151.9z M-8.3,202.5c-10.3-9.4-3.9-14.5-7.1-20.6c-5.5-10.4-17-10.1-21-9.7
				c-5.4,8.7-1.9,21.5,10.8,30.8c13,9.6,26,12.7,32.5,4.4C3.5,208.2-2,208.3-8.3,202.5z"/>
		</g>
		<g>
			<path fill-rule="evenodd" clip-rule="evenodd" fill="#394D09" d="M-339.5,373.2c-10.6-8-21.2-10.7-26.6-3.9
				c2.7-0.7,7.3-0.7,12.4,4.1c8.4,7.8,3,11.9,5.6,17c4.4,8.6,13.9,8.5,17.1,8.2C-326.5,391.5-329.2,380.9-339.5,373.2z
				 M-338.4,338.6c3.3-7.4-1.8-13.6-3.7-15.6c-7,0.8-12.4,8.2-12,19.1c0.4,11.2,4.3,19.5,11.6,19.5c-1.9-1.4-4.3-4.4-3.9-10.3
				C-345.9,341.7-340.3,343-338.4,338.6z M-331.9,399.9c0.2-0.2,0.3-0.4,0.5-0.7c-7.2,3.2-15-0.2-18.7-5.1
				c-4.5-5.9-0.4-11.9-5.5-18.3c-3.5-4.4-8.5-5.3-11.3-5.4c-4.8,7.7-1.1,19.6,7.8,28.2C-350.1,407.4-338.3,407.6-331.9,399.9z
				 M-364.2,404.5c-6-8.8-15.8-10.9-22.3-5.5c-0.2,0.1-0.3,0.3-0.5,0.5c6.5-1.4,12.4,2.6,14.7,7.3c2.8,5.6-1.6,9.9,1.5,16
				c2.2,4.2,6.2,5.8,8.4,6.3C-357.2,423.5-358.3,413.1-364.2,404.5z M-371.7,351.9c5.6-5.2,6.1-12.3,1.6-16.3
				c-0.1-0.1-0.3-0.2-0.4-0.3c1.7,4.4-0.6,9-3.6,11.1c-3.7,2.6-7.2-0.1-11.1,2.7c-2.8,2-3.5,5-3.6,6.6
				C-384.4,358.9-377.1,357-371.7,351.9z M-394.4,384.2c-13.2,4.3-14.4-3.8-21.4-4.1c-11.7-0.4-17.3,9.8-18.9,13.4
				c4.9,9,17.7,12.3,32,5.9c14.8-6.6,23.9-16.3,20-26C-383.6,376.7-386.3,381.6-394.4,384.2z M-363.3,429.9
				c-2.4,0.1-6.1-0.6-9.6-5.4c-5.6-7.8-0.5-10.3-1.9-15c-2.2-7.8-10.1-9.3-12.8-9.6c-4.9,5.1-4.3,14.3,2.9,22.4
				C-377.2,430.6-368.9,434.5-363.3,429.9z M-340.8,322.9c-0.2,0-0.5,0-0.7,0c5.9,3,7.8,9.9,6.7,14.9c-1.4,6.1-7.6,6.6-9,13.3
				c-1,4.7,1.1,8.4,2.4,10.3c7.6-0.9,13.4-9.7,14.3-20.1C-326.2,330.8-332.3,323-340.8,322.9z M-291.6,296.4
				c0.9-9.6,9.1-15.9,16.5-17c9-1.4,13,6.6,22.7,5c6.8-1.1,10.7-6,12.5-8.8c-5.3-9.7-20.1-12.8-34.6-8.4
				c-14.7,4.4-21.9,16.9-17.5,28.3C-291.9,295.8-291.8,296.1-291.6,296.4z M-392.1,290.4c12.2,6.6,7.2,13.1,11.8,18.3
				c7.8,8.8,19,5.8,22.7,4.4c3.2-9.7-3.3-21.3-17.9-27.3c-14.9-6.1-28.3-6.1-32.6,3.6C-405,287.7-399.6,286.3-392.1,290.4z
				 M-299.5,251.8c5.4-4.4,3.9-11,3.2-13.2c-5.6-2.1-12.6,1.4-16.5,9.8c-4,8.6-4.3,16.4,1.2,19.3c-0.9-1.8-1.6-5,1-9.3
				C-306.4,251.2-302.7,254.4-299.5,251.8z M-273.3,224c13.9-0.4,12.8,7.7,19.4,9.9c11.1,3.7,19.3-4.5,21.9-7.5
				c-2.1-10-13.5-16.8-29.1-14.7c-16,2.2-27.5,8.9-26.4,19.4C-285.8,228.2-281.8,224.3-273.3,224z M-313.8,308
				c-3.3,0.9-8.9,1-15.2-4.8c-10.3-9.4-3.9-14.5-7.1-20.6c-5.5-10.4-17-10.1-21-9.7c-5.4,8.7-1.9,21.5,10.8,30.8
				C-333.2,313.2-320.3,316.3-313.8,308z M-355.9,271.2c-0.2,0.3-0.4,0.5-0.6,0.8c8.8-4,18.3,0,23,5.9c5.6,7.1,0.7,14.5,6.9,22.2
				c4.3,5.4,10.5,6.4,13.8,6.5c5.8-9.4,1.1-23.8-9.9-34.3C-333.9,261.7-348.3,261.7-355.9,271.2z M-336.6,229.5
				c-2.2-7.8-10.1-9.3-12.8-9.6c-4.9,5.1-4.3,14.3,2.9,22.4c7.4,8.3,15.7,12.3,21.3,7.6c-2.4,0.1-6.1-0.6-9.6-5.4
				C-340.4,236.6-335.3,234.1-336.6,229.5z M-223.3,272.8c-3.1,4.9-0.1,9.8,1.1,11.4c5,0.1,9.6-4.5,10.4-12.3
				c0.8-7.9-1.1-14.2-6.2-14.9c1.2,1.2,2.6,3.5,1.7,7.7C-217.7,271.3-221.5,269.9-223.3,272.8z M-373.2,255.1
				c-8.4,3.5-14.2-3.3-23.3,0.6c-6.3,2.7-9,8.3-10,11.5c7.4,8.1,22.6,7.6,35.6-0.1c13.2-7.8,17.2-21.7,10.2-31.6
				c-0.2-0.3-0.4-0.6-0.6-0.8C-359.8,244.2-366.3,252.3-373.2,255.1z M-223.2,284c0.2,0,0.3,0,0.5,0c-3.9-2.7-4.5-7.8-3.2-11.2
				c1.6-4.2,6-3.9,7.7-8.5c1.2-3.2,0.1-6-0.7-7.5c-5.4-0.1-10.4,5.5-12.1,12.7C-232.7,277-229.1,283.1-223.2,284z M-295.2,239
				c-0.2-0.1-0.4-0.2-0.5-0.2c3.3,4.6,2.1,10.6-0.8,13.9c-3.5,4.1-8.3,2.1-12,6.6c-2.6,3.1-2.5,6.8-2.1,8.7
				c6.1,2.3,13.9-2.1,18.6-9.7C-287.2,250.7-288.9,242.4-295.2,239z M-218.9,239.3c0.9-9.6,9.1-15.9,16.5-17c9-1.4,13,6.6,22.7,5
				c6.8-1.1,10.7-6,12.5-8.8c-5.3-9.7-20.1-12.8-34.6-8.4c-14.7,4.4-21.9,16.9-17.5,28.3C-219.2,238.6-219,239-218.9,239.3z
				 M-97.2,222c0.9-9.6,9.1-15.9,16.5-17c9-1.4,13,6.6,22.7,5c6.8-1.1,10.7-6,12.5-8.8c-5.3-9.7-20.1-12.8-34.6-8.4
				c-14.7,4.4-21.9,16.9-17.5,28.3C-97.5,221.4-97.3,221.7-97.2,222z M-178.2,230.8c-13.2,4.3-14.4-3.8-21.4-4.1
				c-11.7-0.4-17.3,9.8-18.9,13.4c4.9,9,17.7,12.3,32,5.9c14.8-6.6,23.9-16.3,20-26C-167.4,223.4-170.1,228.2-178.2,230.8z
				 M-138.9,250.2c-1.3-2-2.5-5.6-0.1-11c4-8.8,8.7-5.6,12.1-9.1c5.7-5.8,3.1-13.4,2-15.9c-6.9-1.7-14.5,3.3-18,13.7
				C-146.4,238.5-145.7,247.6-138.9,250.2z M-252.4,239.1c-9-1.2-10.6-10-20.4-11.2c-6.8-0.8-12,2.7-14.4,4.9
				c2.3,10.8,15.7,17.9,30.9,17.8c15.4-0.1,25.8-10.1,24.7-22.2c0-0.3-0.1-0.7-0.1-1C-235.4,236.4-245,240.1-252.4,239.1z
				 M-262.8,318.5c-8.6-4-16.4-4.3-19.2,1.2c1.8-0.9,5-1.5,9.3,1c7,4.2,3.9,7.9,6.5,11c4.4,5.3,11,3.9,13.2,3.2
				C-250.9,329.4-254.4,322.4-262.8,318.5z M-358.3,314.9c0.1-0.3,0.3-0.6,0.4-1c-7.6,6-17.8,4.4-23.7-0.2
				c-7.2-5.5-4.2-13.9-12.1-19.9c-5.5-4.2-11.7-3.6-15-3c-3.4,10.5,4.7,23.4,17.8,30.9C-377.4,329.4-363.5,326-358.3,314.9z
				 M-376.2,345c5.3-2.4,5.5-8.1,5.5-10c-4.1-2.9-10.5-1.6-15.4,4.4c-5.1,6.1-7.1,12.4-3.2,15.8c-0.3-1.7-0.2-4.4,2.9-7.3
				C-381.7,343.1-379.4,346.4-376.2,345z M-405.1,339.9c-5.9,2-9.6-2.9-16.1-0.6c-4.5,1.6-6.6,5.4-7.4,7.5c4.8,6,15.3,6.2,24.6,1.5
				c9.5-4.8,12.9-14.2,8.4-21.4c-0.1-0.2-0.3-0.4-0.4-0.6C-395.4,333-400.2,338.3-405.1,339.9z M-295.3,357.3
				c7.1-4.5,9.1-15.2,3-26.6c-6.2-11.7-14.7-18.7-22.4-14.8c2.8,0.5,6.9,2.5,9.5,9c4.3,10.6-2.3,12.1-2.1,17.8
				C-307,352.2-298.3,356.2-295.3,357.3z M-267.1,334.7c-4.1-3.4-2.1-8.3-6.6-12c-3.1-2.6-6.8-2.5-8.7-2.1
				c-2.2,6.1,2.1,13.8,9.7,18.5c7.7,4.8,16,3.2,19.3-3.1c0.1-0.2,0.2-0.4,0.2-0.5C-257.8,338.8-263.7,337.6-267.1,334.7z
				 M-239.2,277.2c-0.9,3.3-3.6,8.2-11.7,10.8c-13.2,4.3-14.4-3.8-21.4-4.1c-11.7-0.4-17.3,9.8-18.9,13.4c4.9,9,17.7,12.3,32,5.9
				C-244.4,296.6-235.3,286.9-239.2,277.2z M-215,335.1c-7.2-5.5-4.2-13.9-12.1-19.9c-5.5-4.2-11.7-3.6-15-3
				c-3.4,10.5,4.7,23.4,17.8,30.9c13.4,7.6,27.4,4.2,32.5-6.9c0.1-0.3,0.3-0.6,0.4-1C-198.9,341.3-209.1,339.7-215,335.1z
				 M-184.6,299.9c-1.6-7.3,4.7-11,2.8-18.9c-1.3-5.5-5.5-8.4-7.9-9.7c-7.6,4.9-9.3,17.2-4.9,28.8c4.5,11.8,15.1,17,24.1,12.7
				c0.2-0.1,0.5-0.3,0.7-0.4C-177.7,312.2-183.2,305.9-184.6,299.9z M-208.9,307.1c-14.9-6.1-28.3-6.1-32.6,3.6
				c3-1.7,8.4-3.1,15.9,1c12.2,6.6,7.2,13.1,11.8,18.3c7.8,8.8,19,5.8,22.7,4.4C-187.9,324.6-194.4,313-208.9,307.1z M-162.4,262.7
				c-3.4-2.9-1.8-6.9-5.5-10.1c-2.6-2.2-5.7-2.1-7.3-1.8c-1.9,5.1,1.8,11.6,8.1,15.6c6.4,4,13.4,2.7,16.2-2.6
				c0.1-0.1,0.1-0.3,0.2-0.4C-154.6,266.1-159.6,265.1-162.4,262.7z M-188.5,270.6c2.8,0.5,6.9,2.5,9.5,9
				c4.3,10.6-2.3,12.1-2.1,17.8c0.3,9.6,9,13.6,12,14.7c7.1-4.5,9.1-15.2,3-26.6C-172.2,273.7-180.7,266.8-188.5,270.6z M-264,385.8
				c-3.5,9-13.2,12.7-20.6,11.7c-9-1.2-10.6-10-20.4-11.2c-6.8-0.8-12,2.7-14.4,4.9c2.3,10.8,15.7,17.9,30.9,17.8
				c15.4-0.1,25.8-10.1,24.7-22.2C-263.9,386.4-264,386.1-264,385.8z M-256,358.3c8.5-4.5,10.3,0.8,15.1,0.2
				c8-1.2,10.6-8.8,11.2-11.4c-4.4-5.5-13.6-6.2-22.5-0.1c-9.3,6.3-14.3,14-10.4,20.2C-262.5,364.7-261.3,361.1-256,358.3z
				 M-229.4,347.6c0.6,6.6-4.3,11.9-9.2,13.6c-5.9,2-9.6-2.9-16.1-0.6c-4.5,1.6-6.6,5.4-7.4,7.5c4.8,6,15.3,6.2,24.6,1.5
				c9.5-4.8,12.9-14.2,8.4-21.4C-229.1,348-229.2,347.8-229.4,347.6z M-158.7,249.1c-7.2-3.4-13.8-3.6-16.1,1
				c1.5-0.7,4.2-1.3,7.8,0.9c5.9,3.5,3.3,6.6,5.4,9.3c3.7,4.5,9.2,3.3,11.1,2.7C-148.7,258.2-151.7,252.3-158.7,249.1z M-86.1,236.2
				c1.7,4.4-0.6,9-3.6,11.1c-3.7,2.6-7.2-0.1-11.1,2.7c-2.8,2-3.5,5-3.6,6.6c4.4,3.1,11.7,1.3,17.1-3.8c5.6-5.2,6.1-12.3,1.6-16.3
				C-85.9,236.4-86,236.3-86.1,236.2z M-305.4,382.4c13.9-0.4,12.8,7.7,19.4,9.9c11.1,3.7,19.3-4.5,21.9-7.5
				c-2.1-10-13.5-16.8-29.1-14.7c-16,2.2-27.5,8.9-26.4,19.4C-317.9,386.6-314,382.7-305.4,382.4z M-44.7,202.7
				c-0.9,3.3-3.6,8.2-11.7,10.8c-13.2,4.3-14.4-3.8-21.4-4.1c-11.7-0.4-17.3,9.8-18.9,13.4c4.9,9,17.7,12.3,32,5.9
				C-49.9,222.2-40.8,212.5-44.7,202.7z M-315.5,193.3c8.4,7.8,3,11.9,5.6,17c4.4,8.6,13.9,8.5,17.1,8.2c4.5-7.1,1.8-17.6-8.5-25.4
				c-10.6-8-21.2-10.7-26.6-3.9C-325.2,188.5-320.7,188.5-315.5,193.3z M-130.7,283c-4.1-3.4-2.1-8.3-6.6-12
				c-3.1-2.6-6.8-2.5-8.7-2.1c-2.2,6.1,2.1,13.8,9.7,18.5c7.7,4.8,16,3.2,19.3-3.1c0.1-0.2,0.2-0.4,0.2-0.5
				C-121.4,287-127.3,285.8-130.7,283z M-126.3,266.8c-8.6-4-16.4-4.3-19.2,1.2c1.8-0.9,5-1.5,9.3,1c7,4.2,3.9,7.9,6.5,11
				c4.4,5.3,11,3.9,13.2,3.2C-114.4,277.6-118,270.7-126.3,266.8z M-123.6,214.6c-0.2-0.1-0.4-0.1-0.7-0.2c4.5,4.9,3.9,12,1,16.3
				c-3.5,5.2-9.4,3.6-13.1,9.3c-2.6,4-2,8.2-1.3,10.5c7.4,1.8,15.9-4.3,20.4-13.8C-112.7,227.1-115.7,217.6-123.6,214.6z
				 M-102.3,248.7c4.9-4.8,7.2-1.4,10.3-2.9c5.3-2.4,5.5-8.1,5.5-10c-4.1-2.9-10.5-1.6-15.4,4.4c-5.1,6.1-7.1,12.4-3.2,15.8
				C-105.5,254.4-105.3,251.7-102.3,248.7z M-435.1,392.6c0.9-9.6,9.1-15.9,16.5-17c9-1.4,13,6.6,22.7,5c6.8-1.1,10.7-6,12.5-8.8
				c-5.3-9.7-20.1-12.8-34.6-8.4c-14.7,4.4-21.9,16.9-17.5,28.3C-435.4,392-435.3,392.3-435.1,392.6z M-397,212.6
				c0.9-9.6,9.1-15.9,16.5-17c9-1.4,13,6.6,22.7,5c6.8-1.1,10.7-6,12.5-8.8c-5.3-9.7-20.1-12.8-34.6-8.4
				c-14.7,4.4-21.9,16.9-17.5,28.3C-397.3,212-397.1,212.3-397,212.6z M-422.6,337.1c8.5-4.5,10.3,0.8,15.1,0.2
				c8-1.2,10.6-8.8,11.2-11.4c-4.4-5.5-13.6-6.2-22.5-0.1c-9.3,6.3-14.3,14-10.4,20.2C-429.1,343.5-427.9,339.8-422.6,337.1z
				 M-398.8,252.6c11.8-7.3,14.9,0.3,21.8-1.2c11.5-2.4,14.4-13.6,15.1-17.5c-6.9-7.6-20.1-7.7-32.5,2
				c-12.8,9.9-19.3,21.5-13.1,30.1C-407.5,262.5-406.1,257.1-398.8,252.6z M-293.8,219.8c0.2-0.2,0.3-0.4,0.5-0.7
				c-7.2,3.2-15-0.2-18.7-5.1c-4.5-5.9-0.4-11.9-5.5-18.3c-3.5-4.4-8.5-5.3-11.3-5.4c-4.8,7.7-1.1,19.6,7.8,28.2
				C-312,227.4-300.2,227.6-293.8,219.8z M-348.9,219.4c6.5-1.4,12.4,2.6,14.7,7.3c2.8,5.6-1.6,9.9,1.5,16c2.2,4.2,6.2,5.8,8.4,6.3
				c5.3-5.5,4.1-16-1.8-24.6c-6-8.8-15.8-10.9-22.3-5.5C-348.5,219.1-348.7,219.3-348.9,219.4z M-356.3,204.2
				c-13.2,4.3-14.4-3.8-21.4-4.1c-11.7-0.4-17.3,9.8-18.9,13.4c4.9,9,17.7,12.3,32,5.9c14.8-6.6,23.9-16.3,20-26
				C-345.4,196.7-348.1,201.5-356.3,204.2z M-367.2,483.2c-10.3-9.4-3.9-14.5-7.1-20.6c-5.5-10.4-17-10.1-21-9.7
				c-5.4,8.7-1.9,21.5,10.8,30.8c13,9.6,26,12.7,32.5,4.4C-355.3,488.9-360.8,489-367.2,483.2z M-436.9,432.6
				c11.8-7.3,14.9,0.3,21.8-1.2c11.5-2.4,14.4-13.6,15.1-17.5c-6.9-7.6-20.1-7.7-32.5,2c-12.8,9.9-19.3,21.5-13.1,30.1
				C-445.7,442.5-444.2,437.2-436.9,432.6z M-342.5,436.6c4.2-7,7.9-3.9,11.1-6.5c5.4-4.4,3.9-11,3.2-13.2
				c-5.6-2.1-12.6,1.4-16.5,9.8c-4,8.6-4.3,16.4,1.2,19.3C-344.4,444.1-345.1,440.9-342.5,436.6z M-327.1,417.3
				c-0.2-0.1-0.4-0.2-0.5-0.2c3.3,4.6,2.1,10.6-0.8,13.9c-3.5,4.1-8.3,2.1-12,6.6c-2.6,3.1-2.5,6.8-2.1,8.7
				c6.1,2.3,13.9-2.1,18.6-9.7C-319.1,429-320.8,420.7-327.1,417.3z M-360.9,452.4c-11.2-10.6-25.5-10.6-33.2-1.1
				c-0.2,0.3-0.4,0.5-0.6,0.8c8.8-4,18.3,0,23,5.9c5.6,7.1,0.7,14.5,6.9,22.2c4.3,5.4,10.5,6.4,13.8,6.5
				C-345.2,477.2-349.9,462.8-360.9,452.4z M-398.8,415.5c-0.2-0.3-0.4-0.6-0.6-0.8c1.5,9.6-5,17.6-11.9,20.5
				c-8.4,3.5-14.2-3.3-23.3,0.6c-6.3,2.7-9,8.3-10,11.5c7.4,8.1,22.6,7.6,35.6-0.1C-395.8,439.3-391.8,425.5-398.8,415.5z
				 M-296.7,358.1c0.2-0.1,0.5-0.3,0.7-0.4c-7.9-0.2-13.5-6.5-14.8-12.5c-1.6-7.3,4.7-11,2.8-18.9c-1.3-5.5-5.5-8.4-7.9-9.7
				c-7.6,4.9-9.3,17.2-4.9,28.8C-316.4,357.2-305.8,362.3-296.7,358.1z"/>
		</g>
		<path d="M397.9-111.5l-2.2-0.7l1.1-6.8c0.2-1.1,0.7-1.8,1.7-1.8s1.9,0.6,3.1,1.4L397.9-111.5z M403.8-111.5l-2.2-0.7l1.1-6.8
			c0.2-1.1,0.7-1.8,1.7-1.8c1,0,1.9,0.6,3.1,1.4L403.8-111.5z"/>
		<g>
			<path fill-rule="evenodd" clip-rule="evenodd" fill="#394D09" d="M555.5-201.8c-2.6,1.1-7.1,1.9-12.9-2c-9.5-6.3-5-11.2-8.4-15.8
				c-5.8-7.7-15.1-6-18.2-5.2c-3.3,7.7,1.2,17.7,12.7,23.6C540.4-195.1,551.3-194.3,555.5-201.8z M580.9-221.3
				c12.3-6.4,14.9,1.4,21.8,0.4c11.6-1.6,15.4-12.5,16.4-16.3c-6.3-8.1-19.5-9.2-32.6-0.5c-13.5,9-20.8,20-15.3,29
				C571.5-212.1,573.3-217.3,580.9-221.3z M548.3-173c-2.3-10.9-7.5-18.5-14.7-17.2c2.1,1.1,5,3.6,5.6,9.5c1,9.6-4.7,9.2-5.9,13.9
				c-2,7.9,4.1,13.1,6.3,14.7C546.5-154.2,550.5-162.4,548.3-173z M536.6-180.3c0.2-4.8-2.5-8.1-4.1-9.7
				c-7.3,2.2-11.6,11.8-10.7,22.2c0.9,10.6,8.2,17.3,16.6,15.9c0.2,0,0.4-0.1,0.7-0.2c-6.4-2-9.4-8.4-9.1-13.6
				C530.3-171.9,536.3-173.5,536.6-180.3z M555.4-239.8c-3.7-5.1-0.1-10.1-4.2-15.6c-2.8-3.8-7.1-4.7-9.4-4.8
				c-4.3,6.3-1.4,16.5,5.9,24c7.4,7.6,17.4,8.1,22.9,1.7c0.2-0.2,0.3-0.4,0.4-0.5C564.9-232.5,558.5-235.6,555.4-239.8z
				 M516.7-226.2c-0.1,0.2-0.2,0.5-0.4,0.7c6.6-4.4,14.8-2.3,19.3,1.8c5.5,5,2.4,11.7,8.5,17.1c4.2,3.8,9.3,3.8,12,3.5
				c3.5-8.4-2.2-19.5-12.4-26.5C533.4-236.7,521.7-234.9,516.7-226.2z M489-179.1c-0.2,0.2-0.4,0.3-0.6,0.5
				c7.8-1.1,14.4,4.2,16.7,9.9c2.8,6.9-2.8,11.6,0.4,19.1c2.2,5.2,6.8,7.4,9.4,8.2c6.7-6.1,6.3-18.5,0-29.3
				C508.5-181.5,497.2-184.9,489-179.1z M514.3-132.6c3.1-1.5,8.6-2.4,15.8,2.2c11.7,7.5,6.2,13.6,10.5,19.1
				c7.1,9.3,18.5,7.1,22.3,6.1c3.9-9.5-1.8-21.5-15.8-28.5C532.6-141,519.3-141.9,514.3-132.6z M564.9-257.2
				c-8.7-7-17.6-9.4-22.3-3.9c2.3-0.5,6.1-0.4,10.3,3.7c6.9,6.8,2.3,10.1,4.3,14.5c3.5,7.3,11.5,7.5,14.2,7.3
				C575.5-241.5,573.4-250.4,564.9-257.2z M537.5-314.3c11.7,7.5,6.2,13.6,10.5,19.1c7.1,9.3,18.5,7.1,22.3,6.1
				c3.9-9.5-1.8-21.5-15.8-28.5c-14.5-7.2-27.7-8.1-32.8,1.1C524.8-317.9,530.2-318.9,537.5-314.3z M536.4-282.8
				c12.8,8.6,27,6.2,32.9-4.5c0.2-0.3,0.3-0.6,0.5-0.9c-8,5.5-18,3.1-23.6-1.9c-6.7-6.1-3.1-14.2-10.6-20.7
				c-5.2-4.6-11.4-4.5-14.7-4.1C516.8-304.7,523.9-291.3,536.4-282.8z M610.3-130.1c-2.7,2.2-7.8,4.4-15.9,1.7
				c-13.2-4.5-9.3-11.7-14.7-16.1c-9.2-7.3-19.7-2.5-23.1-0.5c-1.5,10.1,6.9,20.4,22.2,23.9C594.5-117.6,607.6-119.9,610.3-130.1z
				 M580.8-252.2c-3-9.2,2-18.2,8.3-22.2c7.7-4.8,14.5,0.9,22.8-4.5c5.8-3.7,7.5-9.7,7.9-13c-8.7-6.8-23.6-3.7-35.1,6.1
				c-11.7,9.9-13.4,24.3-4.7,32.9C580.3-252.6,580.5-252.4,580.8-252.2z M587.8-159.2c-14.5-5.3-27.7,0.5-30.9,12.2
				c-0.1,0.3-0.2,0.7-0.2,1c6.4-7.2,16.8-7.3,23.4-3.8c8,4.3,6.5,13,15.2,17.6c6.1,3.2,12.2,1.6,15.2,0.4
				C612.1-142.7,602-154,587.8-159.2z M620.2-235.6c-0.2-0.3-0.4-0.6-0.6-0.9c0.8,9.6-6.3,17.2-13.4,19.6
				c-8.6,2.8-13.9-4.3-23.2-1.1c-6.5,2.2-9.6,7.6-10.8,10.7c6.8,8.7,22,9.2,35.5,2.5C621.5-211.6,626.5-225.1,620.2-235.6z
				 M509.1-242.7c0.2,0.1,0.4,0.1,0.6,0.1c-4-4-3.8-10.1-1.6-13.9c2.7-4.6,7.8-3.5,10.8-8.5c2-3.5,1.3-7.1,0.7-9
				c-6.4-1.2-13.3,4.4-16.8,12.6C499.2-252.8,502.2-244.9,509.1-242.7z M509.6-74.8c-4.6,5.2-2,11.5-0.9,13.6
				c5.9,1.1,12.2-3.5,14.6-12.4c2.5-9.2,1.5-16.9-4.4-18.8c1.2,1.7,2.4,4.7,0.6,9.4C516.5-75.4,512.3-77.9,509.6-74.8z M561.9-103.4
				c0.2-0.3,0.3-0.6,0.5-0.9c-8,5.5-18,3.1-23.6-1.9c-6.7-6.1-3.1-14.2-10.6-20.7c-5.2-4.6-11.4-4.5-14.7-4.1
				c-4.1,10.2,2.9,23.7,15.5,32.1C541.8-90.4,556-92.8,561.9-103.4z M549.9-59c3.5,7.3,11.5,7.5,14.2,7.3c4-5.9,1.9-14.8-6.6-21.6
				c-8.7-7-17.6-9.4-22.3-3.9c2.3-0.5,6.1-0.4,10.3,3.7C552.4-66.7,547.8-63.4,549.9-59z M563.9-185.6c-4.6,6-3.9,13.1,1.1,16.4
				c0.1,0.1,0.3,0.2,0.4,0.2c-2.4-4.1-0.9-9,1.7-11.6c3.2-3.1,7.1-1.1,10.5-4.6c2.4-2.4,2.6-5.5,2.5-7.1
				C575.3-194.6,568.5-191.6,563.9-185.6z M581.7-90.5c7.7-4.8,14.5,0.9,22.8-4.5c5.8-3.7,7.5-9.7,7.9-13
				c-8.7-6.8-23.6-3.7-35.1,6.1C565.6-92,564-77.6,572.6-69c0.2,0.2,0.5,0.5,0.8,0.7C570.3-77.5,575.4-86.5,581.7-90.5z
				 M614.7-276.2c-10.4,9.2-14.8,2.3-21.3,4.8c-10.9,4.3-11.9,15.9-12,19.8c8.1,6.3,21.1,4.2,31.7-7.4c10.9-11.9,15.4-24.5,7.9-31.8
				C621.7-287.4,621.1-281.8,614.7-276.2z M598.9-179.4c5.5-3,10,1.2,16-2.1c4.2-2.3,5.6-6.4,6-8.6c-5.7-5.1-16.1-3.6-24.5,2.6
				c-8.6,6.3-10.3,16.1-4.7,22.5c0.2,0.2,0.3,0.3,0.5,0.5C590.5-171,594.3-177,598.9-179.4z M480.9-98c-8.6,2.8-13.9-4.3-23.2-1.1
				c-6.5,2.2-9.6,7.6-10.8,10.7c6.8,8.7,22,9.2,35.5,2.5c13.8-6.8,18.8-20.3,12.5-30.8c-0.2-0.3-0.4-0.6-0.6-0.9
				C495.1-107.9,488-100.3,480.9-98z M506.4-214c-1.3,3.2-4.5,7.7-12.9,9.4c-13.6,2.7-13.9-5.5-20.8-6.5
				c-11.6-1.8-18.3,7.7-20.3,11.1c3.8,9.5,16.2,14.3,31.1,9.6C499-195.3,509.2-203.8,506.4-214z M468.5-156.5
				c-8.4-3.5-16.3-0.5-18.5,6.3c-0.1,0.2-0.1,0.4-0.1,0.6c4-4,10-3.8,13.8-1.6c4.6,2.7,3.5,7.8,8.5,10.7c3.5,2,7.1,1.3,8.9,0.7
				C482.4-146.2,476.7-153.1,468.5-156.5z M513.8-140.5c-2.8,0-7.2-1.3-10.9-7.3c-6-9.7,0.3-12.3-0.9-17.9
				c-1.9-9.4-11.1-11.9-14.3-12.5c-6.2,5.6-6.4,16.5,1.5,26.7C497.3-140.9,506.8-135.4,513.8-140.5z M511.1-256
				c-4.6,5.2-2,11.5-0.9,13.6c5.9,1.1,12.2-3.5,14.6-12.4c2.5-9.2,1.5-16.9-4.4-18.8c1.2,1.7,2.4,4.7,0.6,9.4
				C518-256.6,513.8-259,511.1-256z M462.2-134.5c9.2,2.5,16.9,1.5,18.7-4.4c-1.6,1.2-4.7,2.4-9.3,0.5c-7.6-3-5.2-7.1-8.2-9.8
				c-5.2-4.5-11.5-2-13.6-0.9C448.6-143.1,453.3-136.9,462.2-134.5z M448.9-172.5c-7.6,5.9-10.3,0.9-14.9,2.4
				c-7.7,2.5-8.9,10.4-9.1,13.1c5.3,4.7,14.4,3.8,22.2-3.7c8-7.7,11.7-16.2,6.9-21.6C454.2-179.9,453.5-176.1,448.9-172.5z
				 M569.6-179.6c-4.8,3.2-4.1,8.9-3.7,10.8c4.5,2.2,10.6-0.2,14.5-6.9c4-6.9,4.9-13.4,0.5-16.1c0.6,1.6,0.9,4.3-1.6,7.7
				C575.3-178.6,572.4-181.5,569.6-179.6z M465.3-54.4c9.1-0.3,12.1,8.1,22,7.6c6.9-0.3,11.3-4.7,13.4-7.3
				c-4.1-10.2-18.5-15-33.4-12.4c-15.1,2.7-23.7,14.2-20.6,26c0.1,0.3,0.2,0.7,0.3,1C448.9-48.9,457.8-54.1,465.3-54.4z M506.5-75.2
				c2.7-4.6,7.8-3.5,10.8-8.5c2-3.5,1.3-7.1,0.7-9c-6.4-1.2-13.3,4.4-16.8,12.6c-3.5,8.4-0.5,16.3,6.4,18.5c0.2,0.1,0.4,0.1,0.6,0.1
				C504-65.4,504.3-71.4,506.5-75.2z M455.6-102.4c12.3-6.4,14.9,1.4,21.8,0.4c11.6-1.6,15.4-12.5,16.4-16.3
				c-6.3-8.1-19.5-9.2-32.6-0.5c-13.5,9-20.8,20-15.3,29C446.2-93.2,448-98.4,455.6-102.4z M488.4-43.1c-13.6,2.7-13.9-5.5-20.8-6.5
				c-11.6-1.8-18.3,7.7-20.3,11.1c3.8,9.5,16.2,14.3,31.1,9.6c15.4-4.8,25.6-13.4,22.8-23.5C500-49.3,496.8-44.7,488.4-43.1z
				 M428.9-93.8c-0.2,0-0.3,0-0.5,0c4.3,2.1,5.8,6.9,5,10.5c-0.9,4.4-5.3,4.9-6.2,9.7c-0.6,3.3,0.9,6,1.9,7.3
				c5.4-0.8,9.3-7.1,9.8-14.6C439.4-88.5,434.9-93.9,428.9-93.8z M420.1-152.2c-14.5-5.3-27.7,0.5-30.9,12.2c-0.1,0.3-0.2,0.7-0.2,1
				c6.4-7.2,16.8-7.3,23.4-3.8c8,4.3,6.5,13,15.2,17.6c6.1,3.2,12.2,1.6,15.2,0.4C444.3-135.7,434.3-147,420.1-152.2z M426.6-121.4
				c-13.2-4.5-9.3-11.7-14.7-16.1c-9.2-7.3-19.7-2.5-23.1-0.5c-1.5,10.1,6.9,20.4,22.2,23.9c15.8,3.6,28.9,1.2,31.5-9
				C439.8-120.9,434.7-118.6,426.6-121.4z M616.7-179.5c-7.6,5.9-10.3,0.9-14.9,2.4c-7.7,2.5-8.9,10.4-9.1,13.1
				c5.3,4.7,14.4,3.8,22.2-3.7c8-7.7,11.7-16.2,6.9-21.6C622-186.9,621.3-183.1,616.7-179.5z M452.1-200.9c2-9.5,10.9-14.7,18.4-15
				c9.1-0.3,12.1,8.1,22,7.6c6.9-0.3,11.3-4.7,13.4-7.3c-4.1-10.2-18.5-15-33.4-12.4c-15.1,2.7-23.7,14.2-20.6,26
				C451.9-201.6,452-201.3,452.1-200.9z M607.3-92.3c-10.4,9.2-14.8,2.3-21.3,4.8c-10.9,4.3-11.9,15.9-12,19.8
				c8.1,6.3,21.1,4.2,31.7-7.4c10.9-11.9,15.4-24.5,7.9-31.8C614.3-103.5,613.7-98,607.3-92.3z M432.2-49
				c0.8,9.6-6.3,17.2-13.4,19.6c-8.6,2.8-13.9-4.3-23.2-1.1c-6.5,2.2-9.6,7.6-10.8,10.7c6.8,8.7,22,9.2,35.5,2.5
				c13.8-6.8,18.8-20.3,12.5-30.8C432.6-48.4,432.4-48.7,432.2-49z M535.2-19.9c-9.5-6.3-5-11.2-8.4-15.8c-5.8-7.7-15.1-6-18.2-5.2
				c-3.3,7.7,1.2,17.7,12.7,23.6c11.8,6.1,22.6,6.9,26.8-0.6C545.5-16.8,541-16,535.2-19.9z M536.4-45.7
				c-10.4-7.2-22.1-5.4-27.1,3.3c-0.1,0.2-0.2,0.5-0.4,0.7c6.6-4.4,14.8-2.3,19.3,1.8c5.5,5,2.4,11.7,8.5,17.1
				c4.2,3.8,9.3,3.8,12,3.5C552.2-27.6,546.6-38.7,536.4-45.7z M573.5-37.4c12.3-6.4,14.9,1.4,21.8,0.4
				c11.6-1.6,15.4-12.5,16.4-16.3c-6.3-8.1-19.5-9.2-32.6-0.5c-13.5,9-20.8,20-15.3,29C564.1-28.2,565.9-33.5,573.5-37.4z
				 M563.3-50.6c0.2-0.2,0.3-0.4,0.4-0.5c-6.2,2.5-12.6-0.5-15.7-4.7c-3.7-5.1-0.1-10.1-4.2-15.6c-2.8-3.8-7.1-4.7-9.4-4.8
				c-4.3,6.3-1.4,16.5,5.9,24C547.8-44.7,557.7-44.3,563.3-50.6z M612.2-52.6c0.8,9.6-6.3,17.2-13.4,19.6
				c-8.6,2.8-13.9-4.3-23.2-1.1c-6.5,2.2-9.6,7.6-10.8,10.7c6.8,8.7,22,9.2,35.5,2.5c13.8-6.8,18.8-20.3,12.5-30.8
				C612.6-52,612.4-52.3,612.2-52.6z M276.4,3.6c12.3-6.4,14.9,1.4,21.8,0.4c11.6-1.6,15.4-12.5,16.4-16.3
				c-6.3-8.1-19.5-9.2-32.6-0.5c-13.5,9-20.8,20-15.3,29C267,12.8,268.8,7.6,276.4,3.6z M372.6-62.6c3.8,2.3,2.9,6.6,7.1,9
				c2.9,1.7,5.9,1.1,7.5,0.5c1-5.3-3.7-11.1-10.6-14c-7-2.9-13.7-0.4-15.5,5.3c-0.1,0.2-0.1,0.3-0.1,0.5
				C364.3-64.6,369.4-64.4,372.6-62.6z M301.4-23.9c0.1,0.1,0.3,0.2,0.4,0.2c-2.4-4.1-0.9-9,1.7-11.6c3.2-3.1,7.1-1.1,10.5-4.6
				c2.4-2.4,2.6-5.5,2.5-7.1c-4.9-2.4-11.7,0.7-16.2,6.6C295.7-34.2,296.4-27.1,301.4-23.9z M428.4-66.3c-1.4-1-3.2-3.1-3-7.3
				c0.3-6.9,4.2-6,5.5-9.2c2.2-5.4-1.6-9.7-3-11c-5,0.7-8.7,6.1-8.2,13.8C420.3-72,423.2-66.1,428.4-66.3z M424.4-157.5
				c-1.7-6.5,2.2-12.4,6.7-14.9c5.5-3,10,1.2,16-2.1c4.2-2.3,5.6-6.4,6-8.6c-5.7-5.1-16.1-3.6-24.5,2.6c-8.6,6.3-10.3,16.1-4.7,22.5
				C424-157.8,424.2-157.7,424.4-157.5z M388.2-103c2.8,6.9-2.8,11.6,0.4,19.1c2.2,5.2,6.8,7.4,9.4,8.2c6.7-6.1,6.3-18.5,0-29.3
				c-6.4-10.9-17.7-14.2-25.9-8.5c-0.2,0.2-0.4,0.3-0.6,0.5C379.3-114,385.9-108.7,388.2-103z M397-74.7c-2.8,0-7.2-1.3-10.9-7.3
				c-6-9.7,0.3-12.3-0.9-17.9c-1.9-9.4-11.1-11.9-14.3-12.5c-6.2,5.6-6.4,16.5,1.5,26.7C380.4-75.1,389.9-69.7,397-74.7z
				 M337.9-77.2c4.6,2.7,3.5,7.8,8.5,10.7c3.5,2,7.1,1.3,8.9,0.7c1.2-6.3-4.4-13.3-12.6-16.7c-8.4-3.5-16.3-0.5-18.5,6.3
				c-0.1,0.2-0.1,0.4-0.1,0.6C328.1-79.7,334.1-79.5,337.9-77.2z M387-52.2c-1.4,1-3.9,2-7.8,0.5c-6.4-2.5-4.3-6-6.9-8.2
				c-4.4-3.8-9.7-1.7-11.4-0.8c-1,4.9,2.9,10.2,10.4,12.2C378.9-46.4,385.4-47.3,387-52.2z M393.5-33.8c12.3-6.4,14.9,1.4,21.8,0.4
				c11.6-1.6,15.4-12.5,16.4-16.3c-6.3-8.1-19.5-9.2-32.6-0.5c-13.5,9-20.8,20-15.3,29C384.1-24.6,385.9-29.9,393.5-33.8z
				 M351.5-46.3c1.6,1.8,3.4,5.1,1.9,10.8c-2.4,9.3-7.6,7-10.4,11c-4.6,6.7-0.8,13.7,0.7,16c7.1,0.5,13.8-5.7,15.4-16.5
				C360.9-36,358.6-44.9,351.5-46.3z M355.1-64.9c-1.6,1.2-4.7,2.4-9.3,0.5c-7.6-3-5.2-7.1-8.2-9.8c-5.2-4.5-11.5-2-13.6-0.9
				c-1.1,5.9,3.5,12.1,12.4,14.6C345.5-58,353.2-59.1,355.1-64.9z M339.4-24.5c2.6-5.7,8.7-5.1,11.4-11.4c1.9-4.4,0.5-8.5-0.4-10.5
				c-7.6-0.5-15,7-17.8,17c-2.9,10.2,1.6,19.1,9.9,20.7c0.2,0,0.5,0.1,0.7,0.1C337.8-12.7,337.3-19.8,339.4-24.5z M317.3-46.4
				c0.6,1.6,0.9,4.3-1.6,7.7c-4.1,5.5-6.9,2.6-9.7,4.6c-4.8,3.2-4.1,8.9-3.7,10.8c4.5,2.2,10.6-0.2,14.5-6.9
				C320.8-37.2,321.6-43.7,317.3-46.4z M315.1-11.5c0.8,9.6-6.3,17.2-13.4,19.6c-8.6,2.8-13.9-4.3-23.2-1.1
				c-6.5,2.2-9.6,7.6-10.8,10.7c6.8,8.7,22,9.2,35.5,2.5C317,13.3,322-0.2,315.7-10.6C315.5-10.9,315.3-11.2,315.1-11.5z"/>
		</g>
	</g>
</g>
</svg>
